<?xml version="1.0" encoding="UTF-8" standalone="no"?><!DOCTYPE svg PUBLIC "-//W3C//DTD SVG 1.1//EN" "http://www.w3.org/Graphics/SVG/1.1/DTD/svg11.dtd"><svg width="100%" height="100%" viewBox="0 0 4 4" version="1.1" xmlns="http://www.w3.org/2000/svg" xmlns:xlink="http://www.w3.org/1999/xlink" xml:space="preserve" xmlns:serif="http://www.serif.com/" style="fill-rule:evenodd;clip-rule:evenodd;stroke-linejoin:round;stroke-miterlimit:2;"><g><path d="M3.84,0.609c-0,0.336 -0.273,0.609 -0.609,0.609l-2.622,-0c-0.336,-0 -0.609,-0.273 -0.609,-0.609c0,-0.336 0.273,-0.609 0.609,-0.609l2.622,0c0.336,0 0.609,0.273 0.609,0.609Z" style="fill:#1ebfbf;"/><path d="M3.633,3.662c-0.236,0.237 -0.618,0.237 -0.854,-0l-2.599,-2.623c-0.235,-0.237 -0.235,-0.623 0,-0.861c0.236,-0.237 0.618,-0.237 0.853,0l2.6,2.623c0.235,0.237 0.235,0.623 -0,0.861Z" style="fill:#1ebfbf;"/></g></svg>