<?xml version="1.0" encoding="UTF-8" standalone="no"?>
<!DOCTYPE svg PUBLIC "-//W3C//DTD SVG 1.1//EN" "http://www.w3.org/Graphics/SVG/1.1/DTD/svg11.dtd">
<svg width="100%" height="100%" viewBox="0 0 218 46" version="1.1" xmlns="http://www.w3.org/2000/svg" xmlns:xlink="http://www.w3.org/1999/xlink" xml:space="preserve" xmlns:serif="http://www.serif.com/" style="fill-rule:evenodd;clip-rule:evenodd;stroke-linejoin:round;stroke-miterlimit:2;">
    <g transform="matrix(1,0,0,1,-1552.47,-1531.49)">
        <g>
            <g transform="matrix(1.45723,0,0,1.45723,-844.673,-381.851)">
                <path d="M1676,1319.2L1676,1337.8C1676,1341.22 1673.22,1344 1669.8,1344L1651.2,1344C1647.78,1344 1645,1341.22 1645,1337.8L1645,1319.2C1645,1315.78 1647.78,1313 1651.2,1313L1669.8,1313C1673.22,1313 1676,1315.78 1676,1319.2Z" style="fill:rgb(30,191,191);"/>
                <g transform="matrix(-1.55357e-16,0.845722,-0.845722,-1.55357e-16,2654.03,11.5133)">
                    <g transform="matrix(3.12965e-17,-0.511111,0.657143,4.02384e-17,768.6,1953.69)">
                        <path d="M1547,1188.5C1547,1191.54 1543.83,1194 1539.93,1194L1509.07,1194C1505.17,1194 1502,1191.54 1502,1188.5C1502,1185.46 1505.17,1183 1509.07,1183L1539.93,1183C1543.83,1183 1547,1185.46 1547,1188.5Z" style="fill:rgb(233,239,236);"/>
                    </g>
                    <g transform="matrix(0.459554,-0.459554,0.46467,0.46467,304.547,1322.91)">
                        <path d="M1547,1188.5C1547,1191.54 1544.51,1194 1541.44,1194L1507.56,1194C1504.49,1194 1502,1191.54 1502,1188.5C1502,1185.46 1504.49,1183 1507.56,1183L1541.44,1183C1544.51,1183 1547,1185.46 1547,1188.5Z" style="fill:rgb(233,239,236);"/>
                    </g>
                </g>
            </g>
            <g transform="matrix(0.792329,0,0,0.792329,333.929,322.737)">
                <g transform="matrix(0.959698,0,0,0.959698,344.744,463.296)">
                    <path d="M1316.27,1149.7L1316.27,1125.49L1321.82,1125.49L1321.82,1149.7L1316.27,1149.7ZM1321.82,1136.24L1319.9,1135.28C1319.9,1132.22 1320.58,1129.74 1321.95,1127.84C1323.31,1125.94 1325.37,1124.99 1328.12,1124.99C1329.33,1124.99 1330.43,1125.21 1331.4,1125.64C1332.38,1126.08 1333.29,1126.79 1334.12,1127.76L1330.49,1131.49C1330.06,1131.02 1329.57,1130.69 1329.03,1130.49C1328.49,1130.28 1327.87,1130.18 1327.17,1130.18C1325.62,1130.18 1324.34,1130.67 1323.33,1131.65C1322.32,1132.62 1321.82,1134.15 1321.82,1136.24Z" style="fill:rgb(235,235,235);fill-rule:nonzero;"/>
                    <path d="M1345.42,1150.2C1343.24,1150.2 1341.26,1149.65 1339.5,1148.54C1337.73,1147.43 1336.34,1145.93 1335.31,1144.03C1334.29,1142.13 1333.77,1140 1333.77,1137.65C1333.77,1135.26 1334.29,1133.12 1335.31,1131.22C1336.34,1129.32 1337.73,1127.8 1339.5,1126.68C1341.26,1125.55 1343.24,1124.99 1345.42,1124.99C1347.27,1124.99 1348.91,1125.38 1350.34,1126.17C1351.77,1126.96 1352.9,1128.05 1353.74,1129.43C1354.59,1130.81 1355.01,1132.37 1355.01,1134.12L1355.01,1141.08C1355.01,1142.83 1354.59,1144.39 1353.77,1145.77C1352.95,1147.15 1351.81,1148.23 1350.37,1149.02C1348.92,1149.81 1347.27,1150.2 1345.42,1150.2ZM1346.33,1144.96C1348.38,1144.96 1350.04,1144.27 1351.3,1142.89C1352.56,1141.51 1353.19,1139.75 1353.19,1137.6C1353.19,1136.15 1352.9,1134.87 1352.33,1133.76C1351.76,1132.65 1350.96,1131.79 1349.94,1131.17C1348.91,1130.55 1347.71,1130.23 1346.33,1130.23C1344.99,1130.23 1343.8,1130.55 1342.78,1131.17C1341.75,1131.79 1340.94,1132.65 1340.35,1133.76C1339.77,1134.87 1339.47,1136.15 1339.47,1137.6C1339.47,1139.04 1339.77,1140.32 1340.35,1141.43C1340.94,1142.54 1341.75,1143.4 1342.78,1144.03C1343.8,1144.65 1344.99,1144.96 1346.33,1144.96ZM1352.84,1149.7L1352.84,1143.19L1353.79,1137.29L1352.84,1131.44L1352.84,1125.49L1358.38,1125.49L1358.38,1149.7L1352.84,1149.7Z" style="fill:rgb(235,235,235);fill-rule:nonzero;"/>
                    <path d="M1376.69,1150.2C1374.84,1150.2 1373.19,1149.81 1371.75,1149.02C1370.3,1148.23 1369.17,1147.15 1368.34,1145.77C1367.52,1144.39 1367.11,1142.83 1367.11,1141.08L1367.11,1134.12C1367.11,1132.37 1367.53,1130.81 1368.37,1129.43C1369.21,1128.05 1370.35,1126.96 1371.8,1126.17C1373.25,1125.38 1374.88,1124.99 1376.69,1124.99C1378.88,1124.99 1380.85,1125.55 1382.62,1126.68C1384.38,1127.8 1385.78,1129.32 1386.8,1131.22C1387.83,1133.12 1388.34,1135.26 1388.34,1137.65C1388.34,1140 1387.83,1142.13 1386.8,1144.03C1385.78,1145.93 1384.38,1147.43 1382.62,1148.54C1380.85,1149.65 1378.88,1150.2 1376.69,1150.2ZM1363.73,1159.79L1363.73,1125.49L1369.28,1125.49L1369.28,1132L1368.32,1137.9L1369.28,1143.75L1369.28,1159.79L1363.73,1159.79ZM1375.78,1144.96C1377.13,1144.96 1378.31,1144.65 1379.34,1144.03C1380.36,1143.4 1381.17,1142.54 1381.76,1141.43C1382.35,1140.32 1382.64,1139.04 1382.64,1137.6C1382.64,1136.15 1382.35,1134.87 1381.76,1133.76C1381.17,1132.65 1380.36,1131.79 1379.34,1131.17C1378.31,1130.55 1377.13,1130.23 1375.78,1130.23C1374.44,1130.23 1373.25,1130.55 1372.2,1131.17C1371.16,1131.79 1370.35,1132.65 1369.78,1133.76C1369.21,1134.87 1368.92,1136.15 1368.92,1137.6C1368.92,1139.04 1369.21,1140.32 1369.78,1141.43C1370.35,1142.54 1371.16,1143.4 1372.2,1144.03C1373.25,1144.65 1374.44,1144.96 1375.78,1144.96Z" style="fill:rgb(235,235,235);fill-rule:nonzero;"/>
                    <path d="M1392.23,1149.7L1392.23,1125.49L1397.77,1125.49L1397.77,1149.7L1392.23,1149.7ZM1395,1121.06C1394.06,1121.06 1393.28,1120.74 1392.65,1120.1C1392.03,1119.46 1391.72,1118.67 1391.72,1117.73C1391.72,1116.79 1392.03,1116 1392.65,1115.36C1393.28,1114.72 1394.06,1114.4 1395,1114.4C1395.97,1114.4 1396.76,1114.72 1397.37,1115.36C1397.97,1116 1398.28,1116.79 1398.28,1117.73C1398.28,1118.67 1397.97,1119.46 1397.37,1120.1C1396.76,1120.74 1395.97,1121.06 1395,1121.06Z" style="fill:rgb(235,235,235);fill-rule:nonzero;"/>
                    <path d="M1413.31,1150.2C1411.12,1150.2 1409.15,1149.65 1407.38,1148.54C1405.62,1147.43 1404.22,1145.93 1403.2,1144.03C1402.17,1142.13 1401.66,1140 1401.66,1137.64C1401.66,1135.24 1402.17,1133.1 1403.19,1131.21C1404.22,1129.31 1405.61,1127.8 1407.37,1126.68C1409.13,1125.55 1411.11,1124.99 1413.31,1124.99C1415.15,1124.99 1416.79,1125.38 1418.22,1126.17C1419.65,1126.96 1420.79,1128.05 1421.63,1129.43C1422.47,1130.81 1422.89,1132.37 1422.89,1134.12L1422.89,1141.08C1422.89,1142.83 1422.48,1144.39 1421.65,1145.77C1420.83,1147.15 1419.69,1148.23 1418.25,1149.02C1416.8,1149.81 1415.15,1150.2 1413.31,1150.2ZM1414.21,1144.96C1415.59,1144.96 1416.79,1144.65 1417.81,1144.02C1418.84,1143.39 1419.63,1142.53 1420.21,1141.42C1420.79,1140.32 1421.07,1139.04 1421.07,1137.6C1421.07,1136.14 1420.78,1134.86 1420.2,1133.76C1419.63,1132.66 1418.83,1131.8 1417.81,1131.17C1416.79,1130.55 1415.6,1130.23 1414.24,1130.23C1412.88,1130.23 1411.68,1130.55 1410.66,1131.18C1409.64,1131.8 1408.83,1132.67 1408.24,1133.78C1407.65,1134.88 1407.36,1136.15 1407.36,1137.6C1407.36,1139.04 1407.65,1140.32 1408.23,1141.43C1408.82,1142.54 1409.63,1143.4 1410.67,1144.03C1411.7,1144.65 1412.88,1144.96 1414.21,1144.96ZM1426.27,1149.7L1420.72,1149.7L1420.72,1143.19L1421.68,1137.29L1420.72,1131.44L1420.72,1113.39L1426.27,1113.39L1426.27,1149.7Z" style="fill:rgb(235,235,235);fill-rule:nonzero;"/>
                </g>
                <g transform="matrix(0.877144,2.36584e-32,-2.36584e-32,0.877144,568.743,557.241)">
                    <path d="M1325.23,1150.25C1323.75,1150.25 1322.34,1150.06 1320.98,1149.67C1319.62,1149.29 1318.36,1148.74 1317.22,1148.02C1316.08,1147.3 1315.09,1146.43 1314.24,1145.4L1318.11,1141.53C1319.03,1142.6 1320.08,1143.4 1321.28,1143.93C1322.48,1144.47 1323.83,1144.74 1325.34,1144.74C1326.7,1144.74 1327.73,1144.53 1328.42,1144.13C1329.12,1143.72 1329.47,1143.13 1329.47,1142.36C1329.47,1141.55 1329.14,1140.93 1328.48,1140.49C1327.82,1140.04 1326.96,1139.67 1325.91,1139.36C1324.87,1139.04 1323.76,1138.72 1322.6,1138.39C1321.44,1138.06 1320.34,1137.61 1319.29,1137.04C1318.25,1136.47 1317.39,1135.68 1316.73,1134.69C1316.07,1133.7 1315.73,1132.41 1315.73,1130.83C1315.73,1129.14 1316.13,1127.68 1316.92,1126.47C1317.71,1125.26 1318.83,1124.32 1320.29,1123.66C1321.74,1122.99 1323.48,1122.66 1325.5,1122.66C1327.63,1122.66 1329.52,1123.04 1331.16,1123.79C1332.79,1124.55 1334.16,1125.68 1335.27,1127.19L1331.4,1131.05C1330.63,1130.09 1329.75,1129.38 1328.76,1128.9C1327.76,1128.42 1326.62,1128.18 1325.34,1128.18C1324.12,1128.18 1323.18,1128.37 1322.52,1128.73C1321.86,1129.1 1321.53,1129.63 1321.53,1130.33C1321.53,1131.07 1321.86,1131.64 1322.52,1132.04C1323.18,1132.45 1324.04,1132.8 1325.09,1133.09C1326.13,1133.39 1327.24,1133.71 1328.4,1134.06C1329.56,1134.41 1330.66,1134.88 1331.71,1135.49C1332.76,1136.1 1333.61,1136.91 1334.27,1137.92C1334.94,1138.93 1335.27,1140.25 1335.27,1141.87C1335.27,1144.44 1334.37,1146.48 1332.56,1147.99C1330.76,1149.5 1328.32,1150.25 1325.23,1150.25Z" style="fill:rgb(235,235,235);fill-rule:nonzero;"/>
                    <path d="M1339.46,1149.7L1339.46,1123.21L1345.53,1123.21L1345.53,1149.7L1339.46,1149.7ZM1342.5,1118.36C1341.47,1118.36 1340.61,1118.01 1339.93,1117.31C1339.25,1116.61 1338.91,1115.75 1338.91,1114.72C1338.91,1113.69 1339.25,1112.82 1339.93,1112.12C1340.61,1111.42 1341.47,1111.08 1342.5,1111.08C1343.56,1111.08 1344.43,1111.42 1345.09,1112.12C1345.75,1112.82 1346.08,1113.69 1346.08,1114.72C1346.08,1115.75 1345.75,1116.61 1345.09,1117.31C1344.43,1118.01 1343.56,1118.36 1342.5,1118.36Z" style="fill:rgb(235,235,235);fill-rule:nonzero;"/>
                    <path d="M1355.46,1149.7L1355.46,1112.18L1361.53,1112.18L1361.53,1149.7L1355.46,1149.7ZM1349.12,1128.73L1349.12,1123.21L1367.88,1123.21L1367.88,1128.73L1349.12,1128.73Z" style="fill:rgb(235,235,235);fill-rule:nonzero;"/>
                    <path d="M1382.94,1150.25C1380.3,1150.25 1377.91,1149.65 1375.8,1148.46C1373.68,1147.26 1372.01,1145.62 1370.78,1143.52C1369.54,1141.42 1368.93,1139.07 1368.93,1136.46C1368.93,1133.85 1369.53,1131.5 1370.75,1129.42C1371.96,1127.34 1373.61,1125.7 1375.69,1124.48C1377.77,1123.27 1380.07,1122.66 1382.61,1122.66C1385.08,1122.66 1387.26,1123.23 1389.15,1124.37C1391.05,1125.51 1392.54,1127.08 1393.62,1129.06C1394.71,1131.05 1395.25,1133.31 1395.25,1135.85C1395.25,1136.29 1395.22,1136.74 1395.17,1137.2C1395.11,1137.66 1395.03,1138.17 1394.92,1138.72L1373.18,1138.72L1373.18,1133.75L1391.77,1133.75L1389.51,1135.74C1389.44,1134.12 1389.12,1132.76 1388.57,1131.66C1388.02,1130.55 1387.24,1129.71 1386.23,1129.12C1385.21,1128.53 1383.97,1128.24 1382.5,1128.24C1380.96,1128.24 1379.61,1128.57 1378.47,1129.23C1377.33,1129.89 1376.45,1130.82 1375.83,1132.02C1375.2,1133.21 1374.89,1134.64 1374.89,1136.29C1374.89,1137.95 1375.22,1139.4 1375.88,1140.65C1376.54,1141.9 1377.48,1142.87 1378.69,1143.55C1379.91,1144.23 1381.31,1144.57 1382.89,1144.57C1384.25,1144.57 1385.51,1144.33 1386.67,1143.85C1387.83,1143.37 1388.81,1142.67 1389.62,1141.76L1393.48,1145.67C1392.19,1147.18 1390.63,1148.32 1388.79,1149.09C1386.95,1149.87 1385,1150.25 1382.94,1150.25Z" style="fill:rgb(235,235,235);fill-rule:nonzero;"/>
                    <path d="M1407.88,1150.25C1406.41,1150.25 1405,1150.06 1403.64,1149.67C1402.28,1149.29 1401.02,1148.74 1399.88,1148.02C1398.74,1147.3 1397.75,1146.43 1396.9,1145.4L1400.77,1141.53C1401.69,1142.6 1402.74,1143.4 1403.94,1143.93C1405.13,1144.47 1406.49,1144.74 1408,1144.74C1409.36,1144.74 1410.39,1144.53 1411.09,1144.13C1411.78,1143.72 1412.13,1143.13 1412.13,1142.36C1412.13,1141.55 1411.8,1140.93 1411.14,1140.49C1410.48,1140.04 1409.62,1139.67 1408.57,1139.36C1407.53,1139.04 1406.42,1138.72 1405.26,1138.39C1404.11,1138.06 1403,1137.61 1401.95,1137.04C1400.9,1136.47 1400.05,1135.68 1399.39,1134.69C1398.73,1133.7 1398.39,1132.41 1398.39,1130.83C1398.39,1129.14 1398.79,1127.68 1399.58,1126.47C1400.37,1125.26 1401.49,1124.32 1402.95,1123.66C1404.4,1122.99 1406.14,1122.66 1408.16,1122.66C1410.29,1122.66 1412.18,1123.04 1413.82,1123.79C1415.45,1124.55 1416.82,1125.68 1417.93,1127.19L1414.07,1131.05C1413.29,1130.09 1412.41,1129.38 1411.42,1128.9C1410.42,1128.42 1409.28,1128.18 1408,1128.18C1406.78,1128.18 1405.84,1128.37 1405.18,1128.73C1404.52,1129.1 1404.19,1129.63 1404.19,1130.33C1404.19,1131.07 1404.52,1131.64 1405.18,1132.04C1405.84,1132.45 1406.7,1132.8 1407.75,1133.09C1408.8,1133.39 1409.9,1133.71 1411.06,1134.06C1412.22,1134.41 1413.32,1134.88 1414.37,1135.49C1415.42,1136.1 1416.27,1136.91 1416.93,1137.92C1417.6,1138.93 1417.93,1140.25 1417.93,1141.87C1417.93,1144.44 1417.03,1146.48 1415.22,1147.99C1413.42,1149.5 1410.98,1150.25 1407.88,1150.25Z" style="fill:rgb(235,235,235);fill-rule:nonzero;"/>
                </g>
            </g>
        </g>
    </g>
</svg>
