<svg width="472" height="471" viewBox="0 0 472 471" fill="none" xmlns="http://www.w3.org/2000/svg">
<path d="M39 288L151.5 286L165.5 262L159.5 257L132 194.5L163 193.5V148H249V146C246.833 144.167 243.5 139.5 247.5 135.5C255.5 127 260.5 125 272.5 122C282.1 119.6 288.167 122.333 290 124C289.5 100.833 288.5 51.9 288.5 41.5C287.7 32.3 278.167 29.6667 273.5 29.5H112.5C106.9 30.7 104.5 43 104 49L107.5 136.5C91.6667 137 55.8 138.2 39 139C22.2001 141 17.6667 151.833 17.5 157L19.5 256.5C18.5 260.833 17.7 271.4 22.5 279C27.3 286.6 35.5 288.167 39 288Z" fill="white"/>
<path d="M302.5 22L303.5 52.5C304.3 58.5 309.167 60 311.5 60L421 57.5C424.167 57.3333 431.1 56.8 433.5 56C435.9 55.2 436.5 51.3333 436.5 49.5V18.5C436.1 12.9 430.333 12.1667 427.5 12.5C395.667 12.8333 328.6 13.6 315 14C303 14 301.667 19.3333 302.5 22Z" fill="white"/>
<path d="M324 120.5V186.5L337.5 197L346.5 207.5C349.167 212.167 355.1 223.1 357.5 229.5C359.9 235.9 360.5 246.167 360.5 250.5H433.5C436.5 251 443.7 251 448.5 247C453.3 243 454.5 235 454.5 231.5L454 126C453.833 125 453.3 121.3 452.5 114.5C449.3 107.3 442.167 105.833 439 106L374.5 106.5L342 107.5C339.667 108.5 333.8 111.1 329 113.5C324.6 115.5 323.833 119 324 120.5Z" fill="white"/>
<path d="M264.68 356.219C264.499 356.269 264.345 356.389 264.253 356.552C264.16 356.716 264.136 356.909 264.186 357.09C264.236 357.271 264.356 357.425 264.519 357.517C264.682 357.61 264.876 357.634 265.057 357.584C271.002 356.282 276.577 353.652 281.362 349.89C299.549 336.456 298.608 317.398 308.961 299.963C317.243 286.67 324.513 288.199 323.948 286.481C323.927 286.413 323.892 286.351 323.846 286.297C323.8 286.243 323.743 286.199 323.679 286.168C323.615 286.137 323.545 286.12 323.474 286.117C323.403 286.114 323.332 286.126 323.266 286.152C290.703 298.128 309.102 340.832 264.68 356.219ZM396.463 314.386C397.38 313.421 398.298 312.41 399.192 311.398C406.109 302.998 410.956 289.987 410.485 280.411C410.474 280.308 410.433 280.21 410.369 280.128C410.305 280.046 410.22 279.983 410.123 279.947C410.025 279.91 409.92 279.902 409.818 279.921C409.716 279.941 409.621 279.988 409.544 280.058C408.838 280.74 410.815 284.505 405.85 296.363C401.145 307.61 397.027 310.48 392.392 315.727C388.24 320.521 385.084 326.095 383.108 332.122C381.133 338.149 380.378 344.509 380.887 350.831C380.914 350.964 380.986 351.084 381.091 351.17C381.196 351.256 381.328 351.303 381.463 351.303C381.599 351.303 381.73 351.256 381.835 351.17C381.94 351.084 382.013 350.964 382.04 350.831C381.878 344.1 383.072 337.405 385.55 331.144C388.027 324.883 391.739 319.184 396.463 314.386ZM189.884 212.791C192.236 211.167 192.072 206.203 189.884 204.367C189.265 203.868 188.544 203.511 187.771 203.322C186.999 203.133 186.194 203.116 185.415 203.274C184.635 203.431 183.9 203.758 183.261 204.232C182.622 204.705 182.096 205.314 181.719 206.014C181.283 207.109 181.204 208.314 181.495 209.456C181.785 210.598 182.43 211.619 183.337 212.371C184.244 213.124 185.366 213.57 186.542 213.645C187.718 213.721 188.888 213.421 189.884 212.791ZM183.413 207.403C184.119 204.72 188.754 204.344 189.46 207.026C189.931 208.861 189.719 210.155 188.778 210.861C188.212 211.213 187.569 211.42 186.904 211.466C186.24 211.511 185.574 211.392 184.966 211.12C184.329 210.763 183.831 210.202 183.549 209.529C183.268 208.855 183.22 208.107 183.413 207.403ZM270.28 169.263C270.19 169.257 270.099 169.269 270.013 169.299C269.928 169.329 269.85 169.377 269.783 169.439C269.717 169.5 269.664 169.575 269.628 169.658C269.592 169.742 269.574 169.831 269.574 169.922C269.574 172.275 265.598 174.628 264.868 174.863C264.728 174.897 264.607 174.986 264.532 175.109C264.457 175.233 264.434 175.381 264.468 175.522C264.503 175.662 264.591 175.783 264.715 175.858C264.839 175.933 264.987 175.956 265.127 175.922C271.315 174.651 272.256 169.216 270.28 169.263ZM262.021 165.663C261.739 165.499 260.492 164.581 260.045 164.228C260.045 163.922 261.151 159.993 261.363 159.24C261.574 158.487 260.61 158.299 260.351 158.911C259.367 160.818 258.578 162.82 257.998 164.887C258.186 165.569 261.457 166.463 261.692 166.463C261.79 166.477 261.89 166.457 261.975 166.408C262.061 166.358 262.128 166.282 262.166 166.19C262.203 166.099 262.21 165.998 262.184 165.902C262.157 165.807 262.1 165.723 262.021 165.663ZM254.257 153.052C254.223 152.849 254.118 152.664 253.961 152.531C253.804 152.397 253.604 152.324 253.398 152.324C253.192 152.324 252.993 152.397 252.835 152.531C252.678 152.664 252.573 152.849 252.54 153.052C252.45 154.674 252.45 156.3 252.54 157.922C252.687 158.164 252.911 158.349 253.175 158.449C253.44 158.548 253.73 158.557 254 158.473C254.27 158.39 254.504 158.218 254.666 157.986C254.828 157.754 254.907 157.475 254.892 157.193C254.566 155.833 254.354 154.448 254.257 153.052ZM270.703 157.17C270.402 155.82 270.19 154.453 270.068 153.076C270.068 152.845 269.976 152.623 269.813 152.46C269.65 152.297 269.429 152.205 269.198 152.205C268.967 152.205 268.745 152.297 268.582 152.46C268.419 152.623 268.327 152.845 268.327 153.076C268.242 154.643 268.242 156.214 268.327 157.781C268.34 157.963 268.393 158.14 268.482 158.3C268.572 158.459 268.695 158.597 268.843 158.704C268.991 158.81 269.161 158.883 269.341 158.917C269.52 158.951 269.705 158.944 269.882 158.899C270.059 158.853 270.223 158.77 270.364 158.653C270.505 158.537 270.619 158.391 270.697 158.226C270.776 158.061 270.817 157.881 270.818 157.699C270.819 157.516 270.78 157.335 270.703 157.17Z" fill="black"/>
<path d="M454.836 125.124C454.671 110.466 449.754 104.678 434.578 105.125C430.249 105.125 353.053 105.901 347.523 106.09C343.816 106.091 340.149 106.851 336.747 108.325C334.795 109.101 324.583 114.207 323.454 116.913C322.23 118.842 323.666 173.804 323.454 185.145C321.819 184.214 320.139 183.366 318.419 182.604C318.108 181.058 317.448 179.604 316.49 178.352C315.532 177.101 314.3 176.084 312.89 175.381C310.725 174.534 307.949 175.545 306.349 174.016C304.749 172.487 307.619 171.663 307.925 169.31C307.916 167.679 307.726 166.053 307.36 164.463C305.942 155.934 303.962 147.509 301.431 139.241C299.314 132.441 297.102 126.677 291.008 122.983C291.008 111.548 289.855 44.5394 289.22 40.9866C288.594 37.4802 286.724 34.3174 283.953 32.0787C281.183 29.8399 277.698 28.6754 274.138 28.7989C273.903 28.7989 111.981 28.7989 111.793 28.9871C105.322 32.8458 103.581 41.4571 103.158 47.8098C103.017 50.9861 105.793 115.124 106.899 135.5C95.4405 135.735 37.5608 137.288 34.2433 139.053C26.7377 140.888 18.4322 146.111 16.8088 154.605C15.797 160.064 17.844 264.929 18.5263 269.894C19.015 275.256 21.411 280.265 25.279 284.011C29.4905 287.705 35.2315 288.387 40.2901 288.575L147.65 286.552C137.156 310.316 125.063 344.008 117.063 364.972C117.025 365.032 117.006 365.101 117.006 365.172C117.006 365.243 117.025 365.312 117.063 365.372C119.228 367.499 121.592 369.413 124.122 371.089C120.286 384.195 120.71 384.924 119.863 385.983C112.593 394.9 103.817 400.1 95.1582 400.947C91.1348 401.394 87.1585 402.1 85.7468 406.006C84.594 409.558 87.6526 411.935 91.2289 412.923C93.5818 413.558 109.628 417.111 112.004 417.393C114.11 417.746 116.271 417.265 118.028 416.052C119.722 414.805 125.298 408.217 127.439 406.241C123.557 425.063 120.851 419.064 130.098 423.087C130.227 423.156 130.37 423.195 130.516 423.202C130.662 423.209 130.808 423.184 130.943 423.127C131.078 423.071 131.199 422.986 131.297 422.877C131.395 422.768 131.467 422.639 131.509 422.499C133.156 417.793 144.309 390.9 148.85 383.912C149.956 412.335 149.767 410.852 150.167 410.97C151.744 411.37 153.461 411.746 155.226 412.099C155.226 416.052 155.344 420.099 155.673 424.522C155.673 424.663 155.485 424.899 155.297 425.275C149.462 438.075 142.921 443.298 135.815 446.451C132.662 447.862 128.31 449.792 128.427 454.145C128.427 457.909 132.286 459.109 136.027 458.968C141.65 458.78 148.92 458.027 152.214 457.862C161.626 457.297 161.861 455.509 165.861 447.439C166.779 445.58 167.861 443.369 168.473 442.286C169.578 455.509 168.12 457.462 169.931 457.368C174.849 457.109 176.99 458.45 176.99 456.686C177.178 451.839 179.343 432.781 180.472 428.099C180.472 427.557 180.096 427.252 179.531 427.134C180.237 422.758 181.884 414.146 182.095 412.57C183.272 412.405 184.448 412.217 185.366 412.005C185.625 412.005 185.366 413.252 189.342 396.853C217.906 408.123 248.375 410.829 275.715 404.406C276.679 408.147 283.667 433.651 287.479 444.827C288.778 448.479 290.508 451.962 292.632 455.203C293.173 455.721 294.09 456.639 294.985 456.639C295.879 456.639 296.867 455.392 297.102 454.121C297.337 452.85 293.643 415.746 292.396 402.359C297.987 400.974 303.407 398.977 308.56 396.406L316.184 421.722C316.407 422.1 316.743 422.397 317.144 422.574C317.545 422.75 317.992 422.796 318.42 422.705C318.849 422.614 319.238 422.391 319.534 422.067C319.829 421.743 320.015 421.334 320.066 420.899L319.336 390.571C322.899 388.249 326.309 385.703 329.548 382.948C331.018 384.369 332.672 385.588 334.465 386.571C334.649 386.673 334.866 386.698 335.069 386.64C335.272 386.583 335.444 386.448 335.547 386.265C337.504 383.307 339.699 380.513 342.112 377.913C341.641 380.948 340.724 387.159 340.606 389.089C340.603 389.213 340.625 389.337 340.671 389.453C340.717 389.568 340.786 389.673 340.874 389.761C340.963 389.849 341.068 389.919 341.183 389.965C341.299 390.011 341.423 390.033 341.547 390.03C344.046 389.952 346.54 390.277 348.935 390.994C341.265 394.688 337.759 397.818 338.23 400.406C339.149 405.027 340.439 409.567 342.088 413.982C343.359 417.652 344.676 421.464 348.629 423.064C366.746 430.734 393.662 425.134 411.85 417.487C427.284 411.441 429.543 401.653 428.179 387.818C427.896 385.183 424.838 384.877 418.414 385.042L434.061 365.254C438.766 359.631 434.672 359.819 433.19 348.785C434.607 350.884 436.31 352.777 438.249 354.408C438.364 354.498 438.497 354.564 438.638 354.6C438.78 354.636 438.928 354.643 439.072 354.62C439.707 354.502 439.213 354.831 445.048 344.338C445.159 344.146 445.201 343.923 445.167 343.704C445.133 343.486 445.024 343.286 444.86 343.138C442.296 341.02 436.108 336.079 436.108 336.079C439.298 335.324 442.44 334.382 445.519 333.256C446.253 333.067 446.918 332.671 447.434 332.117C447.951 331.563 448.299 330.872 448.436 330.127C448.742 328.291 448.766 291.328 448.813 286.293C448.813 285.47 447.495 285.234 447.354 286.129C444.601 304.787 431.967 320.315 415.826 324.95C416.344 322.856 417.661 318.315 416.932 317.068C414.271 315.393 411.439 314.005 408.485 312.927C411.426 311.257 418.226 306.904 418.72 305.563C419.026 304.787 417.52 268.482 417.45 264.506C417.438 264.342 417.375 264.186 417.269 264.061C417.163 263.935 417.02 263.846 416.861 263.807C416.701 263.768 416.533 263.78 416.381 263.842C416.229 263.904 416.101 264.013 416.014 264.153C411.459 273.148 404.72 280.857 396.415 286.576C395.451 287.234 388.51 290.928 387.969 291.422C386.227 293.093 388.392 295.14 389.31 296.434C389.968 297.328 392.227 300.363 392.674 300.998C384.392 302.01 382.204 299.163 381.781 300.998C380.967 303.395 379.869 305.686 378.51 307.822C378.995 309.884 379.616 311.912 380.369 313.892C378.99 314.119 377.583 314.119 376.204 313.892C375.959 313.839 375.702 313.88 375.484 314.006C375.267 314.132 375.104 314.335 375.028 314.574C374.369 316.715 373.852 318.504 373.381 320.174C370.529 315.337 367.386 310.678 363.97 306.222C362.299 293.469 356.276 278.576 343.547 276.6C353.123 272.6 359.405 262.318 360.911 251.895C365.428 251.895 430.696 251.707 433.331 251.895C447.613 252.295 453.989 246.836 455.33 232.272C455.871 226.461 454.836 126.183 454.836 125.124ZM129.933 405.253C129.992 405.003 129.955 404.741 129.828 404.518C129.702 404.295 129.495 404.129 129.251 404.053C127.345 403.347 125.886 405.017 124.827 406.217C122.147 409.48 119.204 412.517 116.028 415.299C114.263 416.146 93.723 411.888 91.1584 411.088C89.7779 410.775 88.577 409.929 87.8173 408.735C87.5202 407.867 87.5526 406.919 87.9083 406.073C88.264 405.227 88.9183 404.542 89.7467 404.147C91.5583 403.041 92.8995 403.135 97.9816 402.194C103.064 401.253 108.099 400.335 116.945 392.006C118.178 390.826 119.326 389.56 120.381 388.218C121.85 391.484 124.322 394.196 127.439 395.959C131.615 397.813 136.278 398.267 140.733 397.253C138.38 401.959 131.886 416.664 130.262 421.158C128.968 420.64 127.651 420.17 126.357 419.793C127.814 415.015 129.008 410.161 129.933 405.253ZM336.559 276.411C333.25 276.553 329.963 277.026 326.748 277.823C316.209 279.014 305.614 279.627 295.008 279.658C293.455 270.247 293.926 271.988 293.526 269.376C293.361 268.247 293.126 266.694 293.949 266.2C305.219 261.165 316.936 256.6 328.16 251.683C330.512 253.401 330.701 253.189 330.912 253.048C331.013 252.939 331.069 252.796 331.069 252.648C331.069 252.499 331.013 252.356 330.912 252.248C329.994 251.32 329.028 250.44 328.018 249.613C318.986 241.535 312.695 230.844 310.019 219.026C309.988 218.885 309.902 218.763 309.781 218.686C309.66 218.609 309.513 218.583 309.372 218.614C309.232 218.645 309.109 218.731 309.032 218.852C308.955 218.974 308.929 219.121 308.96 219.261C310.954 231.551 317.311 242.711 326.865 250.695L294.42 264.106C293.482 264.381 292.657 264.95 292.067 265.729C290.443 265.288 288.976 264.399 287.832 263.165C281.715 258.247 279.268 261.612 271.362 267.871C270.598 268.447 269.875 269.076 269.197 269.753C265.018 266.036 260.854 262.303 256.704 258.553C255.645 257 245.998 223.731 242.046 210.367C245.101 202.959 250.031 196.472 256.351 191.545C257.082 193.776 258.003 195.941 259.104 198.015C260.868 199.709 263.151 198.885 265.362 198.344C264.753 199.609 264.401 200.982 264.329 202.384C264.256 203.786 264.463 205.188 264.939 206.509C266.605 210.243 269.206 213.485 272.491 215.92C280.538 222.978 280.138 222.79 280.609 222.79C280.826 222.779 281.032 222.69 281.188 222.538C281.343 222.387 281.439 222.183 281.456 221.967C282.256 213.755 284.891 211.497 292.326 208.885C296.392 207.558 299.833 204.789 301.999 201.101C304.166 197.413 304.91 193.06 304.09 188.862C309.008 188.9 313.907 188.266 318.654 186.98C318.878 186.929 319.073 186.792 319.197 186.598C319.32 186.404 319.362 186.169 319.313 185.945C319.313 185.545 319.148 185.074 319.03 184.58C353.358 201.262 374.275 253.236 346.582 272.553C343.57 274.57 340.146 275.888 336.559 276.411ZM344.465 279.094C350.511 280.388 355.57 285.47 358.864 294.411C374.581 336.879 337.947 388.336 292.467 400.288C292.185 397.441 290.632 380.924 290.326 379.701C290.1 378.621 289.479 377.664 288.585 377.019C285.691 375.419 280.726 377.183 278.091 378.736C275.579 380.404 273.334 382.443 271.433 384.783C271.433 385.536 274.727 399.723 275.432 402.617C246.836 408.598 217.112 406.045 189.954 395.277C194.142 377.866 199.695 354.031 201.248 346.643C217.435 351.679 240.187 351.208 240.422 351.184C240.498 351.164 240.564 351.12 240.612 351.059C240.659 350.997 240.685 350.921 240.685 350.843C240.685 350.765 240.659 350.69 240.612 350.628C240.564 350.566 240.498 350.522 240.422 350.502C227.364 346.149 216.094 334.926 208.706 318.88C197.342 294.905 173.766 295.187 164.59 307.116C151.32 324.339 149.179 374.454 148.968 380.501C148.144 382.007 143.415 391.253 141.627 395.018C127.51 398.382 123.486 390.312 121.769 386.853C121.486 386.265 121.628 387.818 126.004 372.36C128.357 373.513 145.085 379.418 145.109 377.677C145.297 357.678 150.144 310.104 163.273 299.163C172.684 291.446 193.036 292.787 202.048 299.469C207.776 304.698 212.463 310.965 215.859 317.939C223.411 334.15 236.422 346.173 250.869 349.185C269.386 347.561 290.867 318.057 297.008 299.187C308.349 284.811 327.054 276.576 344.465 279.094ZM381.287 374.783C381.318 374.924 381.403 375.046 381.525 375.123C381.646 375.2 381.793 375.226 381.934 375.195C382.074 375.164 382.196 375.078 382.273 374.957C382.351 374.836 382.377 374.689 382.345 374.548C380.863 366.972 376.675 360.431 374.04 353.373C369.475 341.303 372.793 328.338 376.651 316.08C378.373 316.402 380.151 316.171 381.734 315.421C383.028 314.41 381.992 312.692 380.534 308.363C381.733 306.549 382.675 304.577 383.334 302.504C387.011 303.374 390.835 303.423 394.533 302.645C394.677 302.609 394.809 302.539 394.921 302.441C395.032 302.343 395.119 302.221 395.174 302.083C395.229 301.945 395.251 301.797 395.238 301.649C395.224 301.502 395.176 301.359 395.098 301.234C393.521 299.163 389.357 293.493 389.145 293.069C388.933 292.646 389.145 292.693 389.827 292.387C401.074 287.269 410.295 278.552 416.038 267.612C416.32 275.305 417.238 303.94 416.979 305.092C413.323 307.738 409.469 310.098 405.45 312.151C405.275 312.248 405.132 312.395 405.04 312.573C404.948 312.751 404.911 312.952 404.934 313.151C404.957 313.35 405.038 313.538 405.168 313.691C405.297 313.844 405.469 313.955 405.662 314.01C408.991 315.148 412.218 316.565 415.309 318.245C415.732 318.927 414.25 324.315 413.991 325.703L411.638 326.174C411.404 326.235 411.203 326.384 411.076 326.59C410.948 326.796 410.906 327.043 410.956 327.28C411.568 331.444 412.956 341.702 412.956 341.702C406.203 335.42 406.25 331.938 404.791 331.797C404.647 331.779 404.5 331.797 404.364 331.851C404.228 331.904 404.108 331.991 404.015 332.103C392.952 344.94 386.74 361.251 386.463 378.195C386.489 378.322 386.559 378.436 386.659 378.518C386.76 378.6 386.886 378.645 387.016 378.645C387.146 378.645 387.271 378.6 387.372 378.518C387.473 378.436 387.542 378.322 387.569 378.195C388.455 362.163 394.402 346.824 404.556 334.385C406.896 338.417 409.968 341.975 413.615 344.879C413.77 345.017 413.965 345.102 414.172 345.123C414.378 345.144 414.586 345.099 414.766 344.995C414.946 344.891 415.088 344.732 415.173 344.543C415.258 344.353 415.28 344.141 415.238 343.938C415.238 343.938 413.544 332.479 412.885 327.821C428.908 324.974 442.672 311.351 447.307 293.987C447.307 303.657 446.978 327.633 446.978 327.868C446.978 329.397 446.978 330.856 445.613 331.538C441.754 332.894 437.827 334.048 433.849 334.997C433.686 335.04 433.538 335.126 433.419 335.246C433.301 335.366 433.217 335.515 433.176 335.679C433.135 335.842 433.139 336.014 433.187 336.175C433.235 336.337 433.325 336.482 433.449 336.597C434.555 337.491 440.907 342.691 443.001 344.361C443.001 344.361 440.131 349.843 438.672 352.549C436.286 350.342 434.311 347.729 432.837 344.832C432.742 344.667 432.595 344.538 432.419 344.465C432.243 344.392 432.049 344.378 431.864 344.426C431.68 344.474 431.517 344.581 431.399 344.731C431.282 344.881 431.217 345.065 431.214 345.255C431.873 360.972 436.908 358.925 432.743 364.078C418.391 382.124 415.873 387.959 400.415 392.524C403.521 378.407 414.156 372.689 418.414 362.502C420.767 356.925 420.249 350.737 422.108 345.138C423.402 341.251 425.518 337.689 428.311 334.693C431.104 331.697 434.51 329.337 438.296 327.774C438.433 327.727 438.546 327.628 438.61 327.497C438.674 327.367 438.684 327.217 438.637 327.08C438.59 326.942 438.491 326.829 438.361 326.765C438.23 326.701 438.08 326.692 437.943 326.738C433.012 328.478 428.661 331.553 425.375 335.62C422.089 339.687 419.997 344.587 419.332 349.773C418.32 356.996 418.532 360.549 414.014 366.878C409.026 373.819 400.862 379.96 398.227 393.112C394.135 394.131 389.948 394.714 385.733 394.853C385.239 390.641 382.651 388.171 380.816 388.077C379.122 385.112 361.264 357.937 354.676 351.984C361.961 338.874 365.311 323.941 364.323 308.975C367.146 313.139 371.969 320.95 372.816 322.48C364.605 354.149 378.016 358.902 381.287 374.783ZM344.182 375.819C344.182 375.653 344.133 375.49 344.044 375.351C343.954 375.211 343.826 375.1 343.675 375.031C343.524 374.962 343.357 374.937 343.192 374.96C343.028 374.983 342.873 375.052 342.747 375.16C339.739 378.146 337.006 381.399 334.583 384.877C333.197 384.069 331.897 383.123 330.701 382.054C336.387 377.112 341.544 371.592 346.088 365.584C371.075 395.559 369.875 394.688 370.581 394.124C370.637 394.086 370.684 394.038 370.72 393.981C370.756 393.925 370.78 393.862 370.791 393.796C370.802 393.73 370.8 393.662 370.784 393.597C370.768 393.532 370.739 393.471 370.699 393.418C369.052 390.924 352.276 369.889 347.17 363.984C349.595 360.633 351.811 357.137 353.805 353.514C363.217 362.713 377.828 386.924 379.193 389.206C377.893 391.075 377.286 393.338 377.475 395.606C374.503 396.436 371.379 396.573 368.346 396.006C364.746 395.3 351.288 388.689 342.465 388.43C343.029 385.865 343.924 378.03 344.253 375.819H344.182ZM282.585 378.807H282.985C284.82 378.383 287.691 377.748 288.373 379.607C288.726 380.877 295.832 451.062 295.832 453.227C295.869 453.568 295.832 453.913 295.722 454.238C295.613 454.564 295.433 454.861 295.196 455.109C289.079 452.756 274.021 390.336 273.433 385.042C275.804 382.108 278.987 379.94 282.585 378.807ZM32.0551 267.706C32.0551 262.318 28.4788 155.499 28.8317 151.64C29.4435 144.37 32.0551 141.1 37.8196 140.347C43.9134 139.17 100.805 137.547 107.016 137.382C107.158 139.735 107.275 141.382 107.322 141.688C107.583 143.539 108.466 145.246 109.826 146.529C111.186 147.812 112.941 148.594 114.804 148.746C114.804 148.511 113.251 148.746 161.861 148.911C161.861 156.252 162.308 190.745 162.332 192.368C148.497 192.886 134.239 193.45 131.509 193.709C131.133 193.709 130.804 194.391 130.945 194.721C135.039 204.838 153.273 245.919 158.379 256.459C158.855 257.657 159.673 258.688 160.732 259.424C161.39 260.412 162.167 261.518 163.085 262.624C155.626 268.576 152.944 275.164 148.615 284.811C128.686 285.234 47.9132 286.905 46.1016 286.834C41.0665 286.623 37.5137 285.164 35.302 282.388C31.9375 278.388 32.0787 272.929 32.0551 267.706ZM304.255 173.734C304.749 175.522 306.608 176.486 309.478 176.557C314.419 176.345 316.537 180.604 317.431 185.498C312.621 186.438 307.742 186.981 302.843 187.121C302.701 187.123 302.562 187.157 302.435 187.222C302.309 187.286 302.2 187.379 302.115 187.493C302.031 187.607 301.974 187.739 301.949 187.879C301.925 188.018 301.932 188.162 301.972 188.298C302.724 190.983 302.731 193.823 301.993 196.513C301.256 199.202 299.801 201.641 297.784 203.568C291.455 209.661 281.315 206.297 279.832 220.343C277.715 218.508 269.88 211.85 268.28 209.897C265.527 206.72 264.421 201.45 267.245 198.132C273.29 197.144 279.401 196.602 285.526 196.509C285.663 196.509 285.795 196.455 285.892 196.357C285.989 196.26 286.044 196.129 286.044 195.991C286.044 195.854 285.989 195.722 285.892 195.625C285.795 195.528 285.663 195.474 285.526 195.474C278.479 194.974 271.396 195.481 264.492 196.98C261.857 197.709 260.563 198.227 259.386 195.756C258.798 194.509 255.292 183.827 254.68 181.851C253.598 179.286 254.257 180.063 256.233 178.839C258.17 180.476 260.343 181.808 262.68 182.792C262.68 183.074 263.904 186.815 264.092 187.498C264.172 188.063 264.454 188.58 264.887 188.952C265.32 189.325 265.874 189.527 266.445 189.521C271.931 190.025 277.459 189.222 282.576 187.177C287.692 185.132 292.251 181.904 295.879 177.757C295.951 177.658 295.984 177.536 295.971 177.415C295.959 177.293 295.901 177.181 295.811 177.099C295.72 177.017 295.602 176.972 295.48 176.971C295.358 176.971 295.24 177.016 295.149 177.098C291.505 180.781 287.127 183.657 282.299 185.538C277.472 187.418 272.302 188.263 267.127 188.015C265.48 187.898 265.692 188.251 264.304 183.31C270.656 185.098 272.256 182.674 269.997 184.91C269.924 184.998 269.883 185.108 269.882 185.223C269.881 185.338 269.92 185.449 269.993 185.538C270.065 185.627 270.166 185.688 270.279 185.711C270.391 185.734 270.508 185.717 270.609 185.662C279.168 179.264 285.411 170.253 288.397 159.993C288.418 159.927 288.426 159.857 288.42 159.787C288.414 159.717 288.394 159.65 288.361 159.588C288.328 159.527 288.283 159.473 288.228 159.429C288.174 159.385 288.111 159.353 288.044 159.334C286.82 158.911 287.644 161.334 281.903 170.722C279.55 161.311 281.126 151.358 278.585 141.9C278.551 141.766 278.465 141.65 278.346 141.58C278.226 141.509 278.084 141.489 277.95 141.523C277.816 141.558 277.701 141.644 277.63 141.763C277.56 141.882 277.539 142.024 277.574 142.159C277.986 144.16 278.253 146.189 278.374 148.229C273.362 143.264 262.774 135.335 254.422 137.147C252.622 137.202 250.917 137.964 249.675 139.268C248.433 140.571 247.755 142.311 247.787 144.111C245.763 141.382 247.175 137.218 249.01 134.912C253.857 128.583 262.468 125.5 271.056 123.148C278.656 121.124 288.82 121.407 294.585 128.277C297.085 131.705 298.892 135.59 299.902 139.712C302.907 149 305.003 158.558 306.16 168.251C306.25 168.642 306.232 169.05 306.108 169.432C305.983 169.813 305.757 170.153 305.455 170.416C304.985 170.818 304.627 171.335 304.417 171.917C304.207 172.498 304.151 173.124 304.255 173.734ZM160.096 255.895C157.885 251.189 136.027 202.721 132.545 194.721C140.333 194.721 228.211 191.497 229.74 191.45C232.728 201.05 250.139 259.024 250.139 259.518C250.139 259.518 229.34 260.036 218.117 260.483C199.177 250.93 181.648 251.965 168.896 258.718C161.696 258.412 161.367 258.553 160.096 255.895ZM249.504 158.299C249.175 151.24 249.504 146.323 250.61 145.829C254.657 143.994 262.21 143.476 270.609 146.135C271.668 146.488 275.056 148.252 278.468 149.688C278.844 157.217 278.468 165.193 280.82 172.487C278.741 176.134 276.069 179.409 272.915 182.18C258.68 184.063 250.139 172.675 249.457 158.299H249.504ZM271.103 298.999C270.539 300.081 280.115 307.28 281.15 308.057C284.538 311.257 280.397 312.998 276.962 309.916C258.139 292.999 242.093 273.611 221.176 262.035C233.364 261.636 248.445 261.188 251.034 261.165C253.645 263.682 283.973 292.081 291.808 298.81C269.927 298.975 271.315 298.622 271.056 298.999H271.103ZM294.208 298.669C293.973 298.457 254.21 262.53 252.681 260.741C251.786 259.236 235.293 203.262 231.505 191.992C233.829 193.577 235.553 195.897 236.399 198.58C237.811 202.603 253.833 256.248 253.904 256.506C254.096 257.809 254.679 259.023 255.575 259.989C261.762 265.941 288.02 289.752 296.561 296.81C296.067 297.422 295.573 298.034 295.102 298.669H294.208ZM292.491 276.058C288.397 275.729 287.103 275.258 286.091 276.505C285.761 277.023 284.82 278.176 283.62 277.917C283.412 277.869 283.216 277.778 283.045 277.65C282.874 277.522 282.731 277.361 282.625 277.175C282.519 276.99 282.452 276.784 282.429 276.572C282.406 276.36 282.427 276.145 282.491 275.941C283.644 274.858 284.844 273.917 285.926 272.764C285.984 272.683 286.013 272.585 286.008 272.485C286.004 272.385 285.966 272.29 285.901 272.214C285.836 272.139 285.748 272.087 285.65 272.067C285.552 272.047 285.451 272.061 285.361 272.106C284.161 272.882 283.009 274.129 281.644 274.953C281.531 274.954 281.42 274.98 281.319 275.029C281.217 275.078 281.127 275.148 281.056 275.235C280.774 275.349 280.469 275.397 280.166 275.374C279.863 275.352 279.569 275.26 279.307 275.105C279.045 274.95 278.822 274.737 278.656 274.482C278.49 274.227 278.386 273.937 278.35 273.635C278.35 271.753 280.373 270.506 281.55 269.118C282.02 268.647 281.315 267.941 280.82 268.388C279.56 269.452 278.387 270.617 277.315 271.87C275.959 272.301 274.575 272.639 273.174 272.882C272.538 272.882 273.174 273.282 270.397 270.906C273.292 268.191 276.444 265.764 279.809 263.659C285.526 259.894 286.585 266.412 291.738 267.165C291.733 270.145 291.985 273.121 292.491 276.058ZM297.784 295.446L274.091 274.27C274.951 274.101 275.799 273.881 276.632 273.611C276.613 274.122 276.713 274.631 276.925 275.096C277.136 275.562 277.453 275.972 277.85 276.293C278.247 276.615 278.714 276.84 279.213 276.951C279.712 277.061 280.231 277.053 280.726 276.929C280.82 277.428 281.031 277.898 281.341 278.3C281.651 278.702 282.052 279.025 282.511 279.243C282.97 279.461 283.473 279.567 283.981 279.554C284.489 279.54 284.986 279.406 285.432 279.164C288.679 277.682 285.432 277.117 290.679 277.588C291.361 277.588 292.091 277.729 292.796 277.752C293.008 278.858 293.22 279.87 293.455 280.835C293.512 281.027 293.63 281.196 293.791 281.315C293.953 281.434 294.149 281.496 294.349 281.493C336.418 280.599 315.76 274.788 297.737 295.446H297.784ZM241.316 207.826C238.658 198.909 237.269 191.709 231.905 189.874C231.905 190.156 233.905 189.568 164.261 192.227C164.261 180.769 163.767 153.052 163.696 148.841H248.045C247.387 159.028 248.045 170.016 255.104 177.592C254.257 177.922 252.751 178.627 252.398 179.216C253.266 183.018 254.43 186.747 255.88 190.368C249.568 194.823 244.518 200.838 241.222 207.826H241.316ZM231.646 135.1C231.646 131.806 230.893 114.089 230.729 110.842H236.728C236.728 114.183 237.175 131.83 237.317 135.076C235.434 135.029 233.528 135.053 231.646 135.1ZM197.177 135.806C197.201 129.406 196.377 75.2909 196.26 68.2324H202.259C202.259 86.114 202.777 130.841 202.871 135.712L197.177 135.806ZM160.049 77.3144H166.073C166.073 92.7725 166.567 131.806 166.684 136.441H160.991C161.014 130.653 160.191 83.7611 160.049 77.3144ZM108.969 140.653C108.64 138.653 105.911 75.9968 104.805 51.9978C104.546 44.6099 106.499 35.528 111.463 31.3164C111.463 47.7863 113.581 138.676 114.051 146.911C112.667 146.512 111.437 145.698 110.529 144.579C109.62 143.46 109.076 142.09 108.969 140.653ZM324.842 121.101C324.648 119.565 325.016 118.011 325.877 116.724C327.719 115.274 329.697 114.006 331.783 112.936C329.43 117.171 330.042 115.995 331.289 190.345C329.348 188.865 327.33 187.491 325.242 186.227C325.007 174.369 324.889 131.265 324.913 121.101H324.842ZM345.406 147.241C346.499 145.689 347.952 144.425 349.64 143.556C351.328 142.687 353.201 142.24 355.099 142.253C364.675 142.253 368.158 153.64 370.04 162.911C371.687 170.181 371.805 178.745 377.099 184.674C401.709 206.979 403.568 175.851 418.532 177.051C423.238 177.592 426.367 181.898 429.731 185.004C431.17 186.619 433.187 187.602 435.346 187.738C437.505 187.875 439.63 187.154 441.26 185.733V219.167C435.472 219.167 361.97 218.626 353.9 218.72C351.935 214.608 349.621 210.672 346.982 206.956C347.265 204.109 345.523 149.782 345.476 147.241H345.406ZM354.817 220.32C365.64 220.484 434.319 220.673 441.449 220.673C441.459 221.569 441.514 222.464 441.613 223.355C441.631 223.544 441.717 223.721 441.855 223.851C441.994 223.981 442.176 224.056 442.366 224.061C443.754 224.061 443.119 226.202 442.884 162.393C442.884 162.237 442.822 162.087 442.711 161.977C442.601 161.867 442.452 161.805 442.296 161.805C442.14 161.805 441.99 161.867 441.88 161.977C441.769 162.087 441.707 162.237 441.707 162.393C441.707 166.581 441.449 180.416 441.425 183.145C440.885 183.995 440.151 184.706 439.284 185.218C438.416 185.73 437.44 186.03 436.434 186.091C435.429 186.153 434.423 185.976 433.499 185.575C432.575 185.173 431.76 184.558 431.12 183.78C424.32 176.722 417.591 170.84 407.756 179.922C399.709 188.227 395.286 195.239 384.228 188.062C379.75 185.677 376.375 181.644 374.816 176.816C371.099 163.475 372.134 142.888 356.417 140.159C354.316 139.944 352.194 140.248 350.237 141.043C348.281 141.839 346.549 143.103 345.194 144.723C345.194 141.147 344.935 137.665 344.794 134.041C344.794 133.891 344.735 133.748 344.629 133.642C344.523 133.536 344.379 133.477 344.229 133.477C344.08 133.477 343.936 133.536 343.83 133.642C343.724 133.748 343.665 133.891 343.665 134.041C343.665 137.947 344.888 192.486 345.265 204.462C341.639 199.717 337.469 195.413 332.842 191.639C332.842 182.674 332.042 124.465 331.948 120.865C331.806 114.324 334.418 110.536 340.441 108.96C345.382 107.595 434.225 106.231 442.672 107.384C448.272 108.089 451.472 113.572 452.272 118.324C453.26 124.23 453.542 221.849 453.566 223.143C453.754 234.672 452.389 247.824 440.39 249.448C437.684 249.824 370.746 249.989 361.029 249.895C361.329 239.689 359.217 229.556 354.864 220.32H354.817ZM285.926 37.175C288.75 42.1159 287.15 40.7513 289.15 122.018C279.409 117.618 265.621 121.665 256.21 126.724V57.0094C256.21 56.4682 257.433 56.6329 249.151 56.6329C248.634 56.6329 248.681 51.7861 250.422 130.63C249.01 131.904 247.782 133.369 246.775 134.982H238.869C238.869 131.924 237.975 110.231 237.881 110.042C237.854 109.92 237.785 109.811 237.686 109.734C237.588 109.656 237.465 109.616 237.34 109.619C234.798 109.534 232.253 109.589 229.717 109.783C229.642 109.835 229.582 109.906 229.545 109.989C229.507 110.072 229.494 110.164 229.505 110.254C229.505 112.607 229.929 131.712 230.093 135.1L221.223 135.288C221.67 95.1018 221.835 97.2193 221.223 97.1723C214.847 97.4311 214.706 97.3135 214.706 97.784V135.429L204.353 135.641C204.353 130.394 203.553 71.1029 203.389 67.6677C203.396 67.513 203.344 67.3614 203.243 67.2435C203.143 67.1256 203.001 67.0502 202.847 67.0325C202.847 67.0325 195.483 67.0325 195.248 67.2677C194.565 67.8089 195.624 133.147 195.624 135.829L184.448 136.041V100.913C184.365 100.881 184.273 100.881 184.189 100.913C177.696 100.913 177.766 100.913 177.766 101.431V136.182L168.214 136.465C167.555 75.7144 167.014 76.8203 167.249 76.8203C167.25 76.6695 167.195 76.5237 167.096 76.4109C166.996 76.298 166.858 76.2259 166.708 76.2085C166.708 76.2085 159.391 76.2085 159.155 76.3967C158.355 76.8908 159.485 132.465 159.485 136.653L146.544 136.888C146.615 45.1981 146.874 49.4097 146.262 49.4097L140.497 49.6215C140.097 49.6215 140.239 43.9982 140.239 136.982C130.545 137.17 130.827 136.982 130.686 137.359C130.641 137.432 130.616 137.516 130.613 137.602C130.61 137.688 130.63 137.774 130.67 137.85C130.711 137.926 130.77 137.99 130.843 138.036C130.916 138.082 131 138.108 131.086 138.112C145.368 138.112 231.858 137.241 245.951 136.818C244.54 140.417 244.799 144.394 248.069 146.488V147.005C234.47 147.405 118.098 147.005 116.004 147.005C116.004 143.923 113.369 36.2809 113.346 30.2576C129.651 30.2576 273.338 30.4694 277.079 31.0811C278.913 31.3782 280.658 32.079 282.188 33.1328C283.718 34.1867 284.995 35.5674 285.926 37.175ZM29.467 142.817C26.7612 146.723 26.6201 151.805 26.6201 156.723C26.6201 157.805 29.914 273.611 30.4081 276.435C30.6895 278.484 31.4062 280.449 32.5101 282.198C33.6139 283.947 35.0793 285.44 36.8079 286.576C34.0423 286.436 31.3386 285.706 28.8788 284.434C23.6555 281.564 21.6791 275.658 20.9733 272.388C19.7263 266.506 18.0793 165.475 18.3616 160.252C18.1969 151.593 21.138 146.911 29.4199 142.817H29.467ZM382.392 408.899C391.81 408.243 401.035 405.916 409.638 402.029C415.756 399.206 423.379 394.735 426.532 391.183C427.026 402.288 424.767 409.464 413.356 414.711C398.25 421.77 362.417 430.428 346.935 420.099C345.547 418.758 342.229 408.57 340.912 403.864C347.665 408.358 367.334 410.099 382.345 408.899H382.392ZM169.602 439.722C167.626 439.557 166.684 441.533 166.026 442.969C160.52 454.733 160.591 455.486 154.991 455.862C153.226 455.98 136.615 457.344 135.392 457.344C131.11 457.65 128.733 454.709 131.768 451.109C133.499 449.804 135.419 448.773 137.462 448.051C144.003 445.016 154.356 436.992 156.638 427.063C158.999 429.838 162.221 431.743 165.79 432.475C170.209 432.949 174.666 432.036 178.543 429.863C177.649 434.945 175.578 450.78 175.319 455.744C173.944 455.6 172.561 455.537 171.178 455.556C171.155 454.215 170.708 439.816 169.555 439.722H169.602ZM178.26 427.605C175.203 429.767 171.535 430.896 167.79 430.828C165.809 430.679 163.881 430.123 162.124 429.197C160.367 428.27 158.82 426.991 157.579 425.44C157.579 424.711 157.32 416.829 157.391 412.593C165.014 413.195 172.666 413.344 180.307 413.04C179.931 415.111 178.731 423.511 178.213 427.605H178.26Z" fill="black"/>
<path d="M412.485 123.9C412.618 123.873 412.738 123.801 412.823 123.696C412.909 123.591 412.956 123.46 412.956 123.324C412.956 123.188 412.909 123.057 412.823 122.952C412.738 122.847 412.618 122.775 412.485 122.748H408.532C378.957 123.665 379.922 123.642 379.945 124.465C379.969 125.289 379.051 125.477 412.485 123.9ZM413.473 129.406C408.203 129.406 387.592 129.688 382.298 130.112C382.113 130.144 381.944 130.241 381.823 130.385C381.701 130.529 381.635 130.712 381.635 130.9C381.635 131.089 381.701 131.271 381.823 131.415C381.944 131.559 382.113 131.656 382.298 131.688C387.686 131.688 408.179 130.63 413.497 130.418C413.612 130.39 413.714 130.324 413.786 130.23C413.858 130.136 413.896 130.021 413.893 129.902C413.891 129.784 413.848 129.67 413.771 129.58C413.695 129.49 413.59 129.428 413.473 129.406ZM408.297 138.065C404.627 138.206 392.839 138.065 381.592 138.065C381.343 138.065 381.103 138.164 380.927 138.34C380.75 138.517 380.651 138.756 380.651 139.006C380.651 139.255 380.75 139.495 380.927 139.671C381.103 139.848 381.343 139.947 381.592 139.947C383.945 140.111 406.015 139.194 408.321 139.1C408.458 139.097 408.588 139.039 408.683 138.94C408.778 138.841 408.83 138.708 408.826 138.57C408.823 138.433 408.766 138.303 408.667 138.208C408.567 138.113 408.434 138.061 408.297 138.065ZM332.489 20.4933C329.732 21.1704 327.21 22.5827 325.192 24.5798C323.174 26.5769 321.736 29.084 321.03 31.834C318.419 41.8335 327.477 52.7272 337.9 50.9861C340.178 50.5051 342.334 49.5642 344.235 48.221C346.137 46.8779 347.744 45.1607 348.959 43.1746C350.145 40.9827 350.819 38.55 350.929 36.0598C351.039 33.5696 350.583 31.0869 349.594 28.7988C348.182 24.7519 343.994 18.2816 332.489 20.4933ZM338.183 40.3277C333.642 43.457 328.324 37.7631 330.418 34.2574C334.183 27.9989 340.865 32.7281 341.029 35.0809C341.027 36.1255 340.763 37.1529 340.262 38.0694C339.76 38.9858 339.037 39.7622 338.159 40.3277H338.183ZM337.9 29.6223C336.312 29.1227 334.603 29.1634 333.041 29.7381C331.479 30.3128 330.151 31.3891 329.265 32.7986C328.541 34.0677 328.268 35.5443 328.491 36.9882C328.713 38.4322 329.417 39.7585 330.489 40.7512C331.343 41.5708 332.393 42.1576 333.538 42.4555C334.683 42.7533 335.886 42.7523 337.031 42.4525C338.176 42.1527 339.225 41.5641 340.077 40.7431C340.93 39.922 341.557 38.896 341.9 37.7631C343.908 39.08 346.154 39.9912 348.511 40.4454C347.678 42.4778 346.401 44.2978 344.772 45.7717C343.144 47.2456 341.205 48.336 339.1 48.9626C329.689 51.6919 321.313 43.1511 322.371 33.928C322.682 31.7799 323.476 29.7304 324.694 27.9341C325.912 26.1377 327.522 24.6415 329.402 23.5584C331.283 22.4753 333.385 21.8336 335.55 21.6816C337.715 21.5297 339.886 21.8716 341.9 22.6814C340.037 24.6503 338.659 27.027 337.877 29.6223H337.9Z" fill="black"/>
<path d="M311.313 60.8915C317.054 60.5857 422.179 59.7857 429.849 57.5034C435.755 56.4211 437.778 53.6919 437.472 47.7392C437.472 45.7628 437.802 23.105 437.19 19.0816C436.649 14.1172 433.99 11.7643 428.39 11.4584C423.685 11.0114 314.631 12.7054 309.478 13.8113C305.29 14.6348 302.419 16.1641 301.855 20.8698C301.596 22.305 302.725 48.8685 302.867 51.4567C303.196 57.0564 305.996 60.3739 311.313 60.8915ZM320.489 59.2916C319.104 59.1246 317.773 58.6517 316.593 57.907C315.413 57.1623 314.413 56.1645 313.666 54.9859C312.007 52.1296 311.154 48.8773 311.196 45.5746C310.937 41.5747 310.184 26.7519 310.09 23.1756C310.09 21.7168 310.09 16.87 313.666 15.1289C319.195 14.5642 422.202 13.0348 426.602 13.176C428.955 13.176 432.131 13.3642 433.919 15.1759C436.555 17.8346 435.708 22.2344 435.872 47.5274C436.39 53.9742 433.943 55.3859 427.92 56.2564C422.508 57.0799 321.43 59.2916 320.536 59.2916H320.489ZM308.49 20.1875C308.184 22.305 309.431 42.5394 309.549 45.2216C309.831 51.8802 311.737 56.6094 315.501 59.3387H313.148C307.407 59.3387 304.796 56.5858 304.537 50.7273C304.396 47.3862 303.314 22.4932 303.549 21.0815C304.043 16.7994 306.937 15.8583 310.772 15.3877C309.583 16.7407 308.807 18.4066 308.537 20.1875H308.49Z" fill="black"/>
<path d="M364.017 26.2812C364.887 26.2812 391.898 25.5989 391.663 25.5989C391.784 25.5732 391.893 25.5065 391.971 25.4102C392.049 25.3138 392.091 25.1935 392.091 25.0695C392.091 24.9455 392.049 24.8252 391.971 24.7288C391.893 24.6324 391.784 24.5658 391.663 24.5401C389.663 24.5401 366.346 24.1401 363.97 24.5401C363.788 24.6058 363.632 24.7268 363.524 24.8862C363.415 25.0455 363.36 25.2349 363.365 25.4276C363.37 25.6203 363.436 25.8065 363.553 25.9597C363.67 26.1129 363.832 26.2254 364.017 26.2812ZM399.945 33.6691C396.556 33.9985 362.534 32.8456 362.299 34.5632C362.299 34.8926 362.605 35.1514 362.84 35.1985C365.805 35.5514 399.827 34.822 400.062 34.7985C400.136 34.7907 400.208 34.7685 400.274 34.733C400.339 34.6975 400.397 34.6494 400.444 34.5915C400.491 34.5336 400.526 34.467 400.548 34.3955C400.569 34.3241 400.576 34.2491 400.568 34.175C400.56 34.1008 400.538 34.0289 400.503 33.9633C400.467 33.8978 400.419 33.8399 400.361 33.7929C400.303 33.7459 400.237 33.7108 400.165 33.6896C400.094 33.6683 400.019 33.6614 399.945 33.6691ZM399.262 42.704C393.451 42.704 364.158 42.5628 362.629 42.8216C362.478 42.8615 362.345 42.95 362.25 43.0735C362.155 43.1969 362.103 43.3482 362.103 43.504C362.103 43.6597 362.155 43.811 362.25 43.9345C362.345 44.0579 362.478 44.1464 362.629 44.1863C364.252 44.4451 396.886 43.6922 399.286 43.6216C399.389 43.5954 399.481 43.5347 399.545 43.4497C399.61 43.3646 399.643 43.2601 399.641 43.1534C399.638 43.0467 399.599 42.9441 399.53 42.8624C399.461 42.7808 399.367 42.7249 399.262 42.704ZM66.6183 193.427C82.547 192.133 90.9936 171.616 78.6177 160.228C78.1707 159.828 79.0177 158.934 65.983 177.78C50.219 162.84 51.066 163.404 50.7131 163.663C38.2431 175.969 50.5955 194.744 66.6183 193.427Z" fill="black"/>
<path d="M64.8768 170.063C65.3238 170.557 65.112 170.628 75.7704 152.652C75.796 152.612 75.8132 152.567 75.8211 152.521C75.829 152.474 75.8275 152.426 75.8165 152.38C75.8055 152.334 75.7854 152.29 75.7572 152.252C75.7291 152.214 75.6936 152.182 75.6528 152.158C71.8942 150.18 67.5879 149.497 63.4019 150.216C59.2159 150.935 55.3841 153.016 52.5009 156.134C52.2185 156.487 51.795 155.805 64.8768 170.063ZM40.2896 257.236C40.8931 257.232 41.4819 257.049 41.982 256.712C42.4821 256.374 42.871 255.895 43.0999 255.337C43.3288 254.779 43.3874 254.165 43.2683 253.573C43.1492 252.982 42.8578 252.439 42.4307 252.012C43.6071 250.107 51.2303 237.566 53.4655 234.178C54.0448 234.446 54.6913 234.533 55.3208 234.428C55.9504 234.323 56.5337 234.031 56.9948 233.59L67.8649 241.966C67.6876 242.49 67.656 243.053 67.7734 243.594C67.8908 244.135 68.1528 244.634 68.5315 245.037C68.9101 245.441 69.3913 245.735 69.9236 245.886C70.4559 246.038 71.0195 246.043 71.5541 245.9C72.0888 245.756 72.5746 245.471 72.9597 245.073C73.3448 244.675 73.6148 244.181 73.7408 243.642C73.8669 243.103 73.8443 242.54 73.6755 242.012C73.5067 241.485 73.198 241.014 72.7823 240.648L76.6409 235.566C77.3316 235.882 78.1145 235.932 78.8397 235.706C79.5648 235.48 80.181 234.995 80.5702 234.343L91.8167 238.154C91.756 238.66 91.8226 239.173 92.0107 239.647C92.1987 240.121 92.5022 240.54 92.8935 240.867C93.2848 241.194 93.7515 241.417 94.2512 241.518C94.751 241.618 95.2678 241.592 95.7549 241.442C96.242 241.291 96.6838 241.022 97.0402 240.658C97.3967 240.293 97.6563 239.845 97.7957 239.355C97.9351 238.865 97.9497 238.348 97.8383 237.85C97.7269 237.353 97.4929 236.891 97.1577 236.507C98.0988 233.143 106.24 208.273 107.063 205.92C107.853 205.851 108.586 205.481 109.11 204.885C111.345 206.65 118.051 211.661 120.215 213.12C120.092 213.607 120.09 214.117 120.21 214.605C120.33 215.093 120.569 215.543 120.905 215.917C121.241 216.291 121.663 216.576 122.136 216.748C122.608 216.919 123.115 216.972 123.613 216.901C124.11 216.83 124.582 216.637 124.988 216.34C125.393 216.043 125.719 215.651 125.937 215.198C126.154 214.745 126.257 214.246 126.236 213.744C126.215 213.242 126.07 212.753 125.815 212.32C132.074 202.344 132.356 202.509 131.697 202.062C131.573 201.985 131.425 201.957 131.282 201.983C131.138 202.009 131.01 202.087 130.921 202.203C129.815 203.803 124.592 211.144 124.592 211.144C124.035 210.87 123.41 210.766 122.795 210.845C122.18 210.925 121.602 211.184 121.133 211.591C118.945 210.061 112.004 205.097 109.792 203.379C109.887 202.836 109.833 202.278 109.636 201.763C109.439 201.248 109.107 200.796 108.675 200.454C108.242 200.113 107.726 199.894 107.179 199.822C106.633 199.75 106.077 199.827 105.571 200.045C105.064 200.263 104.626 200.613 104.303 201.059C103.979 201.505 103.782 202.031 103.733 202.58C103.683 203.128 103.783 203.681 104.021 204.177C104.259 204.674 104.628 205.098 105.087 205.403C103.063 210.908 97.1812 229.966 95.6754 235.519C95.11 235.373 94.5151 235.388 93.9579 235.563C93.4008 235.738 92.9036 236.065 92.5226 236.507C90.1697 235.707 83.1112 233.566 80.9702 232.884C80.9702 232.079 80.6504 231.307 80.0812 230.738C79.512 230.168 78.74 229.849 77.935 229.849C77.13 229.849 76.358 230.168 75.7888 230.738C75.2196 231.307 74.8998 232.079 74.8998 232.884C74.9049 233.556 75.1278 234.208 75.5351 234.742L71.3235 239.989C70.9201 239.901 70.5028 239.897 70.0978 239.978C69.6929 240.059 69.3091 240.223 68.9707 240.46L57.7477 231.966C57.8702 231.238 57.7229 230.49 57.3335 229.862C56.944 229.235 56.3391 228.771 55.6321 228.557C54.9251 228.344 54.1645 228.395 53.4928 228.702C52.8211 229.009 52.2844 229.551 51.9832 230.225C51.7492 230.71 51.6539 231.25 51.7079 231.786C51.7619 232.321 51.963 232.832 52.2891 233.26C50.0774 236.578 42.0543 249.401 40.9014 251.259C40.4791 251.153 40.0389 251.139 39.6107 251.218C39.1826 251.298 38.7764 251.468 38.4199 251.718C38.0634 251.968 37.7648 252.291 37.5444 252.667C37.324 253.042 37.187 253.461 37.1426 253.894C37.0983 254.327 37.1477 254.765 37.2874 255.177C37.4271 255.59 37.654 255.967 37.9525 256.284C38.251 256.601 38.6142 256.85 39.0175 257.014C39.4207 257.178 39.8546 257.254 40.2896 257.236ZM81.229 265.565C81.0543 265.565 80.8867 265.634 80.7631 265.758C80.6396 265.881 80.5702 266.049 80.5702 266.223C80.5702 266.398 80.6396 266.566 80.7631 266.689C80.8867 266.813 81.0543 266.882 81.229 266.882C85.3464 266.882 133.674 265 135.344 264.976C135.454 264.952 135.552 264.891 135.622 264.803C135.693 264.716 135.731 264.607 135.731 264.494C135.731 264.382 135.693 264.273 135.622 264.185C135.552 264.097 135.454 264.036 135.344 264.012C128.78 264.035 85.4405 265.094 81.229 265.565ZM101.91 248.742C102.06 248.742 102.204 248.682 102.31 248.576C102.416 248.471 102.475 248.327 102.475 248.177C102.475 248.027 102.416 247.884 102.31 247.778C102.204 247.672 102.06 247.613 101.91 247.613C100.052 247.613 93.3226 247.213 91.7462 247.283C91.4716 247.283 91.2083 247.392 91.0141 247.586C90.82 247.78 90.7109 248.044 90.7109 248.318C90.7109 248.593 90.82 248.856 91.0141 249.05C91.2083 249.245 91.4716 249.354 91.7462 249.354C93.299 249.542 99.9575 248.907 101.91 248.742ZM76.7586 251.754H66.6179C66.3986 251.764 66.1861 251.833 66.0027 251.954C65.8193 252.074 65.6717 252.242 65.5755 252.439C65.4793 252.637 65.4379 252.856 65.4557 253.075C65.4735 253.294 65.5498 253.504 65.6767 253.683C66.312 254.624 66.8061 253.895 76.8056 253.048C76.9298 252.988 77.0338 252.894 77.1051 252.776C77.1763 252.659 77.2116 252.523 77.2066 252.385C77.2016 252.248 77.1565 252.115 77.0769 252.002C76.9973 251.89 76.8867 251.804 76.7586 251.754ZM36.6427 264.318C37.1368 264.318 44.2895 263.541 45.8659 263.471C46.0406 263.471 46.2081 263.401 46.3317 263.278C46.4552 263.154 46.5246 262.987 46.5246 262.812C46.5246 262.637 46.4552 262.47 46.3317 262.346C46.2081 262.222 46.0406 262.153 45.8659 262.153C44.9482 262.153 36.9957 262.482 36.4545 262.741C36.3109 262.828 36.1952 262.954 36.1215 263.104C36.0478 263.255 36.0192 263.424 36.0391 263.59C36.059 263.757 36.1265 263.914 36.2336 264.043C36.3407 264.172 36.4828 264.267 36.6427 264.318Z" fill="black"/>
<path d="M119.675 223.519H120.051C130.051 222.625 129.698 223.308 130.122 222.837C130.2 222.745 130.251 222.633 130.27 222.513C130.288 222.394 130.274 222.272 130.228 222.16C130.182 222.048 130.106 221.951 130.008 221.88C129.91 221.808 129.795 221.765 129.674 221.755C126.169 221.755 122.875 221.449 119.722 221.59C118.381 221.614 118.498 223.519 119.675 223.519ZM67.0655 202.979C66.8097 202.979 66.5643 203.081 66.3834 203.262C66.2025 203.443 66.1008 203.688 66.1008 203.944C66.1008 204.2 66.2025 204.445 66.3834 204.626C66.5643 204.807 66.8097 204.908 67.0655 204.908C70.4301 204.908 83.5354 203.709 86.7117 203.379C86.8622 203.35 86.9979 203.27 87.0955 203.152C87.1931 203.034 87.2465 202.885 87.2465 202.732C87.2465 202.579 87.1931 202.43 87.0955 202.312C86.9979 202.194 86.8622 202.114 86.7117 202.085C83.4412 202.344 70.3124 202.697 67.0655 202.979ZM65.4656 208.485C65.2763 208.532 65.1107 208.646 64.9999 208.807C64.8891 208.967 64.8407 209.162 64.8638 209.356C64.8869 209.55 64.98 209.728 65.1254 209.858C65.2709 209.988 65.4588 210.06 65.6538 210.061C69.3713 210.061 83.9589 208.744 87.6293 208.72C87.7915 208.72 87.9471 208.656 88.0618 208.541C88.1766 208.426 88.241 208.271 88.241 208.108C88.241 207.946 88.1766 207.79 88.0618 207.676C87.9471 207.561 87.7915 207.497 87.6293 207.497C80.2276 207.334 72.8234 207.664 65.4656 208.485ZM85.747 212.249C79.5896 212.161 73.4319 212.404 67.3008 212.979C66.1714 213.12 66.1244 214.837 67.3008 214.837C69.3948 214.837 80.8296 213.661 85.7705 213.473C85.8509 213.471 85.9301 213.454 86.0038 213.422C86.0774 213.39 86.144 213.343 86.1997 213.285C86.2554 213.227 86.2991 213.159 86.3285 213.084C86.3578 213.009 86.3721 212.93 86.3705 212.849C86.369 212.769 86.3516 212.69 86.3195 212.616C86.2873 212.542 86.2409 212.476 86.183 212.42C86.1251 212.364 86.0568 212.321 85.982 212.291C85.9072 212.262 85.8274 212.248 85.747 212.249ZM93.4878 161.569C94.6407 161.569 106.381 160.346 108.687 160.181C108.849 160.181 109.005 160.117 109.12 160.002C109.234 159.887 109.299 159.732 109.299 159.569C109.299 159.407 109.234 159.251 109.12 159.137C109.005 159.022 108.849 158.958 108.687 158.958C107.534 158.958 94.9466 159.334 93.5584 159.428C92.1703 159.522 92.1703 161.569 93.4878 161.569ZM95.9113 166.322C99.6052 166.322 114.005 164.957 117.651 164.722C117.784 164.695 117.904 164.623 117.99 164.518C118.076 164.413 118.123 164.281 118.123 164.146C118.123 164.01 118.076 163.878 117.99 163.773C117.904 163.668 117.784 163.596 117.651 163.569C113.981 163.734 99.4876 163.804 95.8877 164.181C95.6314 164.222 95.3984 164.353 95.231 164.552C95.0636 164.75 94.9731 165.002 94.976 165.262C94.9788 165.521 95.0748 165.771 95.2465 165.966C95.4182 166.16 95.6541 166.287 95.9113 166.322Z" fill="black"/>
</svg>
