<svg width="448" height="361" viewBox="0 0 448 361" fill="none" xmlns="http://www.w3.org/2000/svg">
<path d="M111.5 218L117 213.5L126 179.5L128.5 154L129.5 113.5L115.5 90L109 84.5L108 89L104 100.5L102.5 101.5L93.5 86.5L83.5 68.5L75.5 70.5L69.5 73L65.5 90L47 93.5L32 110L27 129L40.5 175L61 203L89.5 218L103.5 219.5L111.5 218Z" fill="white"/>
<path d="M327 194.5L322.5 221.5L328 224.5L341 225.5L346.5 243.5H351L378.5 239L391 246.5L407 253.5L424.5 255.5L434.5 258L445 262L446.5 252.5V224.5L445.5 197L442.5 159L440 139.5L438.5 133.5L434.5 118L430 109L425.5 102L422 98.5L416.5 94.5L397.5 83.5L387 80L381 78.5L380.5 79L379.5 82L362 100.5L353.5 113.5L348 89.5L347.5 86.5L341.5 88L331 92.5L323.5 97.5L318.5 103L309 118L300 134.5L288.5 155.5L282.5 157.5L241.5 168L236 171V174L244.5 197.5L247.5 202.5H250.5L288.5 194L303 190.5L313 184.5L327 171.5V178.5V194.5Z" fill="white"/>
<path fill-rule="evenodd" clip-rule="evenodd" d="M123.933 54.7514V56.4219C123.933 56.8899 124.119 57.3388 124.45 57.6697C124.781 58.0006 125.23 58.1866 125.698 58.1866C126.166 58.1866 126.615 58.0006 126.946 57.6697C127.276 57.3388 127.462 56.8899 127.462 56.4219V54.6573C127.438 54.1933 127.237 53.7563 126.9 53.4367C126.562 53.117 126.115 52.9391 125.651 52.9397C125.418 52.9427 125.188 52.9923 124.975 53.0855C124.762 53.1788 124.569 53.3139 124.409 53.4828C124.249 53.6517 124.125 53.851 124.043 54.0689C123.961 54.2868 123.924 54.5189 123.933 54.7514ZM123.251 49.834C125.839 49.2223 127.957 47.4812 124.192 47.7164C123.259 47.8465 122.339 48.0511 121.439 48.3282C117.91 49.7869 120.969 50.3751 123.251 49.834ZM339.124 66.2097C338.039 68.4846 336.226 70.3315 333.971 71.4566C333.883 71.4877 333.809 71.5483 333.762 71.628C333.714 71.7077 333.696 71.8015 333.71 71.8933C333.723 71.9851 333.769 72.0692 333.838 72.1312C333.907 72.1931 333.996 72.2291 334.088 72.233C334.85 72.3671 335.633 72.3115 336.368 72.071C337.103 71.8306 337.767 71.4128 338.302 70.8545C338.837 70.2962 339.226 69.6147 339.435 68.8703C339.644 68.1258 339.666 67.3413 339.5 66.5862C339.5 66.4863 339.46 66.3906 339.39 66.32C339.319 66.2494 339.223 66.2097 339.124 66.2097ZM329.759 47.5517C329.307 47.436 328.828 47.5016 328.423 47.7346C328.019 47.9676 327.721 48.3495 327.595 48.7987C327.382 49.5646 327.341 50.3683 327.477 51.1516C327.477 51.6196 327.663 52.0684 327.994 52.3994C328.325 52.7303 328.774 52.9162 329.242 52.9162C329.71 52.9162 330.158 52.7303 330.489 52.3994C330.82 52.0684 331.006 51.6196 331.006 51.1516C331.006 49.4575 331.383 47.9988 329.759 47.5517ZM248.845 278.718C246.939 277.753 210.494 280.13 209.576 284.224C209.388 285.118 209.976 288.553 211.012 289.117C213.059 290.2 248.116 288.223 250.045 284.412C250.594 283.485 250.775 282.386 250.553 281.331C250.33 280.277 249.721 279.345 248.845 278.718ZM211.459 288.129C210.733 286.989 210.342 285.669 210.329 284.318C210.8 282.2 230.211 281.047 232.352 280.906C232.301 282.807 232.79 284.684 233.764 286.318C231.081 286.741 212.729 288.812 211.459 288.2V288.129ZM248.328 283.424C246.469 284.741 237.034 285.941 234.775 286.223C234.973 284.361 234.578 282.484 233.646 280.859C236.446 280.671 245.41 280.177 248.069 280.412C248.775 280.93 248.798 282.529 248.328 283.471V283.424ZM187.013 284.294C186.949 284.254 186.876 284.233 186.801 284.233C186.726 284.233 186.653 284.254 186.589 284.294C186.589 284.059 141.65 309.375 140.285 312.058C140.225 312.186 140.193 312.327 140.193 312.469C140.193 312.612 140.225 312.752 140.285 312.881C141.721 316.998 188.613 359.397 190.565 360.361C191.13 360.644 191.836 360.15 194.048 358.973C198.753 356.456 238.916 334.998 243.057 331.539C244.21 330.363 244.916 319.775 244.281 318.575C243.645 317.375 187.013 284.529 187.013 284.294ZM191.083 358.408C186.072 354.432 146.379 318.669 141.979 312.599C146.073 308.74 185.672 285.8 186.872 285.094C192.942 288.788 236.634 315.375 242.234 319.14C239.274 319.995 236.459 321.288 233.881 322.975C232.54 324.269 235.881 326.669 240.516 331.163C233.434 335.727 198.306 354.55 191.083 358.408ZM241.857 329.821C241.622 329.586 235.952 324.057 235.693 323.845C237.979 322.418 240.334 321.107 242.751 319.916C242.759 323.241 242.444 326.558 241.81 329.821H241.857Z" fill="black"/>
<path fill-rule="evenodd" clip-rule="evenodd" d="M222.305 325.492C220.658 326.198 200.565 332.857 194.894 335.162C193.228 335.993 191.412 336.481 189.554 336.598C189.224 336.598 191.13 332.927 205.553 321.681C207.059 320.504 209.953 318.269 210.258 316.434C211.647 310.364 195.2 319.446 180.495 325.186C178.974 326.003 177.315 326.53 175.601 326.739C175.436 325.775 178.754 322.739 178.966 322.504C187.742 312.811 198.871 308.811 198.118 305.234C196.965 299.635 176.542 310.528 172.237 312.293C168.613 313.822 162.825 315.657 163.178 315.657C162.402 315.963 163.178 316.504 163.319 316.434C163.461 316.363 170.919 314.081 172.731 313.281C175.436 312.246 193.53 303.517 196.541 305.564C197.741 306.411 184.942 313.305 177.719 321.281C176.448 322.645 173.013 325.422 174.072 327.68C174.266 328.03 174.56 328.312 174.917 328.493C175.273 328.673 175.675 328.743 176.072 328.692C179.577 328.692 203.482 316.716 208.4 316.34C207.271 317.829 205.922 319.138 204.4 320.222C200.894 322.998 190.73 331.28 188.377 335.092C187.154 337.068 188.165 338.245 189.765 338.268C191.883 338.268 194.471 336.833 200.847 334.433C222.47 326.104 223.152 326.48 222.799 325.704C222.781 325.657 222.754 325.615 222.719 325.579C222.684 325.543 222.642 325.514 222.596 325.494C222.55 325.475 222.501 325.464 222.451 325.464C222.401 325.464 222.351 325.473 222.305 325.492Z" fill="black"/>
<path fill-rule="evenodd" clip-rule="evenodd" d="M447.542 235.778C447.236 211.168 445.024 160.935 440.154 136.583C437.589 123.666 432.037 105.996 421.708 97.4552C417.331 93.8554 410.885 90.3967 399.191 83.9264C399.332 83.6206 380.721 76.0915 379.851 78.5855C379.128 74.2943 378.114 70.0572 376.816 65.9037C378.557 65.339 377.78 60.2569 378.51 57.3865C379.239 54.516 381.992 52.469 383.403 50.1162C386.58 44.8694 387.121 35.7168 386.533 29.623C385.968 23.9526 377.686 11.2944 372.228 9.22389C366.769 7.15339 361.169 7.22398 355.405 6.07109C350.699 5.10642 347.217 2.49478 341.946 1.83598C336.676 1.17719 333.523 4.18882 329.006 4.18882C324.488 4.18882 319.406 0.683093 314.677 0.400753C312.108 0.36089 309.611 1.25475 307.651 2.91636C305.691 4.57797 304.4 6.89443 304.019 9.43564C303.448 13.2234 303.897 17.0947 305.32 20.6512C306.742 24.2077 309.087 27.3208 312.113 29.67C315.796 32.0005 319.936 33.5167 324.253 34.1169C323.971 46.1399 325.241 42.9165 323.83 43.9753C322.418 45.0341 322.865 52.4455 323.359 54.4925C323.571 55.316 323.783 55.6218 324.794 55.9512C324.23 58.3041 320.253 63.3862 323.83 64.6332C324.3 64.7979 326.183 65.1273 326.371 65.1979C326.853 67.4291 327.562 69.6051 328.488 71.6917C329.401 73.7895 330.734 75.6778 332.405 77.2399C334.077 78.802 336.051 80.0047 338.205 80.7736C341.594 82.0912 344.276 82.4441 346.252 83.1265C346.524 84.0995 346.667 85.1042 346.676 86.1146C338.274 88.323 330.358 92.0814 323.336 97.1964C310.607 107.525 292.513 150.371 287.784 155.076C285.949 156.888 242.727 165.264 236.351 169.593C235.104 170.44 235.057 171.17 235.222 172.675C233.669 172.958 227.128 174.181 226.399 175.569C226.183 176.578 226.24 177.625 226.563 178.605C220.742 177.517 214.867 176.732 208.964 176.252C207.884 176.277 206.821 176.529 205.844 176.991C204.867 177.453 203.999 178.115 203.294 178.934C201.317 181.287 202.917 180.887 200.823 180.557C196.377 179.922 180.448 185.263 178.448 186.204C178.448 185.357 178.448 184.769 177.554 184.298C174.928 183.537 172.184 183.266 169.46 183.498C167.813 184.604 174.166 184.228 176.801 185.593C176.801 187.404 177.036 205.992 176.801 209.638C176.801 210.297 176.801 210.203 176.307 210.274C173.954 210.603 170.566 210.274 169.531 211.027C169.907 202.839 169.531 182.793 168.401 181.616C167.719 180.91 155.155 179.405 141.485 177.758C141.533 167.867 140.983 157.983 139.838 148.159C137.32 126.325 132.05 100.585 115.58 87.5263C116.535 87.916 117.585 88.0063 118.592 87.7851C119.936 87.2515 121.384 87.0263 122.827 87.1263C125.18 87.7616 125.486 89.4791 131.368 85.5264C131.744 85.2676 132.732 85.3381 133.509 84.5617C136.167 81.903 134.826 78.3032 134.826 75.6209C135.216 73.7974 135.343 71.9276 135.203 70.0682C135.131 69.791 134.995 69.5343 134.808 69.318C134.62 69.1016 134.385 68.9317 134.12 68.8212C134.12 68.0448 134.944 66.6566 133.768 65.1508C135.462 64.2567 137.297 63.2215 136.356 61.3863C134.558 58.5108 133.075 55.4502 131.932 52.2573C131.203 49.528 132.191 46.0458 132.144 43.1047C132.144 41.0813 132.356 38.6579 132.144 36.4462C133.959 35.1791 135.346 33.3903 136.12 31.317C136.292 30.479 136.255 29.6116 136.013 28.7911C135.771 27.9706 135.331 27.2221 134.732 26.6113C133.956 26.1173 133.791 26.6113 133.815 25.1526C133.9 24.6407 133.877 24.1166 133.747 23.6141C133.617 23.1117 133.384 22.6419 133.062 22.2351C132.074 21.2704 129.815 20.2116 129.109 19.2234C127.909 17.4588 127.203 15.6942 124.944 14.9883C123.345 14.4707 121.839 15.4824 120.756 15.1295C119.274 14.6589 117.745 13.059 116.051 14.7531C115.672 14.9581 115.257 15.0866 114.829 15.131C114.402 15.1754 113.969 15.1349 113.557 15.0119C112.145 13.8119 111.792 11.7414 109.392 11.2944C108.028 11.0591 105.345 11.7179 104.31 11.2944C102.614 10.046 100.743 9.05497 98.7574 8.35334C96.5375 8.14194 94.2977 8.33324 92.1459 8.91802C90.6401 9.22389 88.7108 9.05919 87.1344 9.29448C83.8639 9.8121 82.9228 12.6355 80.7582 14.0001C78.5936 15.3648 74.9467 15.3883 72.8762 18.447C71.1351 21.0351 71.5115 23.835 70.8292 26.4231C70.5469 27.529 69.0411 28.776 68.4764 29.9053C67.1588 32.517 68.1705 35.1521 68.147 37.4109C68.1234 39.6696 66.547 41.7401 66.9941 44.4694C67.3573 45.8325 67.9543 47.1221 68.7587 48.281C68.7684 48.6624 68.7209 49.0431 68.6175 49.4103C67.8998 51.2619 67.7523 53.2858 68.194 55.2218C68.5791 57.0779 69.4756 58.7894 70.7822 60.1628C72.4291 61.598 73.2762 61.2216 74.4761 63.2685C74.9808 64.3509 75.7395 65.2953 76.6878 66.0214C78.4289 67.1978 80.57 66.1861 81.6052 66.7037C82.2492 67.0438 82.9517 67.2593 83.6757 67.3389C83.0965 67.6316 82.5962 68.0593 82.2169 68.5859C69.4175 70.2094 52.5241 79.5502 42.2187 92.3261C38.1483 97.5729 31.3016 105.149 28.737 111.219C14.9494 142.371 21.6785 191.216 16.1258 206.297L2.38521 242.131C1.72642 243.849 0.0323736 252.39 0.644111 255.331C1.6323 259.707 6.22033 254.225 9.02021 251.119C7.27911 257.307 7.30264 258.93 6.38503 283.282C6.10269 290.905 5.84388 299.211 5.72624 306.199C5.71949 306.249 5.7236 306.3 5.73829 306.348C5.75298 306.397 5.7779 306.441 5.81137 306.479C5.84484 306.517 5.88608 306.548 5.93228 306.568C5.97848 306.589 6.02858 306.599 6.07916 306.599C6.73796 306.599 6.31445 307.352 7.27911 287.917C7.96143 274.247 8.73787 261.495 8.80845 260.46C9.15674 256.438 10.043 252.481 11.4436 248.696C18.0143 243.787 25.4084 240.09 33.2779 237.778C42.0363 235.435 51.2851 235.672 59.912 238.461C62.2649 239.237 68.594 240.814 70.8527 239.755C75.5584 237.402 87.6755 229.614 89.6754 224.885C90.6636 222.532 91.4636 220.626 92.24 218.862C95.8399 219.191 100.263 220.109 104.192 220.156C108.592 220.156 111.416 219.45 116.286 215.144C134.191 215.544 153.931 215.003 163.343 214.65C169.625 217.003 188.918 223.897 193.6 228.532C195.435 230.32 196.518 235.308 197.176 240.861C198.044 247.498 198.272 254.203 197.859 260.883C184.965 263.354 168.542 267.259 155.837 270.412C155.126 270.214 154.382 270.158 153.649 270.248C150.284 270.6 151.861 271.965 150.755 268.553C150.808 268.566 150.863 268.565 150.916 268.551C150.968 268.537 151.017 268.51 151.056 268.473C151.096 268.435 151.126 268.389 151.143 268.337C151.16 268.286 151.164 268.231 151.155 268.177C151.12 263.655 150.592 259.15 149.579 254.742C149.414 254.084 148.261 253.754 147.555 253.542C139.932 251.331 110.498 248.366 104.028 250.037C99.8161 251.143 70.6645 266.201 69.3469 269.401C68.0293 272.6 64.453 291.847 63.7942 295.399C48.5479 299.846 36.5249 303.517 30.6428 305.517C30.594 305.532 30.549 305.558 30.5105 305.592C30.4719 305.625 30.4407 305.667 30.4187 305.713C30.3966 305.759 30.3843 305.809 30.3824 305.861C30.3804 305.912 30.389 305.963 30.4075 306.011C30.6898 306.881 38.4071 302.881 117.462 282.106C118.257 284.134 119.275 286.068 120.498 287.87C118.145 288.435 115.486 289.47 114.71 291.635C114.572 292.092 114.549 292.576 114.643 293.044C114.738 293.512 114.946 293.949 115.251 294.317C117.181 296.479 119.754 297.963 122.592 298.552C127.567 299.799 132.736 300.071 137.814 299.352C142.691 298.927 147.496 297.899 152.12 296.293C157.155 294.176 156.825 291.023 154.896 289.588C152.908 288.419 150.723 287.621 148.449 287.235C150.59 283.353 148.59 285.07 151.79 284.294C153.601 283.862 155.255 282.933 156.567 281.612C158.637 279.494 160.025 274.271 158.049 271.753C167.978 269.401 207.905 259.519 217.67 260.248C235.387 261.542 364.204 314.504 394.697 324.716C394.745 324.731 394.795 324.737 394.846 324.733C394.896 324.729 394.945 324.715 394.989 324.692C395.034 324.669 395.074 324.638 395.107 324.599C395.139 324.561 395.164 324.517 395.179 324.469C395.195 324.421 395.201 324.37 395.197 324.32C395.193 324.27 395.179 324.221 395.156 324.176C395.133 324.132 395.101 324.092 395.063 324.059C395.025 324.026 394.98 324.002 394.932 323.986C386.956 321.21 369.169 314.128 347.876 305.611C348.911 303.117 351.64 295.07 353.758 292.294C354.628 291.164 354.581 291.07 362.346 291.517C382.698 292.694 400.626 292.152 420.155 285.917C432.084 282.082 437.942 273.236 441.33 261.401C442.013 261.613 443.871 262.224 444.53 262.366C444.718 262.411 444.914 262.411 445.102 262.366C445.291 262.321 445.465 262.232 445.612 262.107C447.942 259.73 447.542 240.414 447.542 235.778ZM125.721 73.9975C125.084 74.2294 124.397 74.2863 123.73 74.1622C123.064 74.038 122.443 73.7374 121.933 73.2916C121.425 72.8851 121.027 72.3575 120.777 71.7573C120.526 71.1571 120.43 70.5035 120.498 69.8565C120.466 69.7598 120.475 69.6546 120.521 69.5641C120.568 69.4737 120.648 69.4053 120.745 69.3741C120.841 69.3429 120.947 69.3514 121.037 69.3978C121.127 69.4441 121.196 69.5245 121.227 69.6212C122.389 71.292 124.029 72.5717 125.933 73.2916C125.993 73.3417 126.038 73.4086 126.06 73.4839C126.083 73.5591 126.083 73.6394 126.061 73.7148C126.038 73.7901 125.994 73.8571 125.933 73.9074C125.873 73.9576 125.799 73.989 125.721 73.9975ZM103.628 53.3866C103.708 52.6954 103.986 52.0419 104.428 51.5044C104.945 50.9867 106.522 51.3161 107.628 50.5632C108.455 49.9096 109.082 49.0375 109.439 48.0457C110.757 45.434 112.851 47.4575 115.768 43.1518C116.513 41.941 117.091 40.6351 117.486 39.2696C119.133 38.4932 121.274 39.6225 123.345 36.2109C124.027 35.058 124.474 33.8581 125.697 33.5287C126.615 34.5169 127.533 38.2344 131.25 36.7991C131.25 38.0697 130.968 44.4929 130.897 45.0105C130.592 46.5612 130.427 48.136 130.403 49.7162C130.403 54.4219 132.568 57.01 134.968 61.9274C135.344 62.7039 133.368 63.4568 132.379 63.9979C130.985 63.4844 129.543 63.1139 128.074 62.8921C123.509 61.7863 119.862 64.1626 115.933 65.2449C115.267 65.2491 114.603 65.17 113.957 65.0096C112.474 64.8685 110.922 66.3743 108.828 66.6566C108.282 66.7638 107.716 66.7044 107.204 66.4863C106.692 66.2681 106.258 65.9012 105.957 65.4331C105.703 64.5714 105.522 63.6899 105.416 62.798C105.204 61.9509 104.945 61.1039 104.757 60.2804C104.381 58.5864 105.486 57.9276 104.192 55.5748C103.298 53.9748 103.322 54.6807 103.628 53.3866ZM104.522 101.384C106.106 98.378 107.398 95.2264 108.38 91.9731C109.698 100.161 110.404 104.302 110.733 106.372C109.016 104.937 108.851 104.396 104.522 101.29V101.384ZM111.58 110.961C112.733 118.019 112.474 116.419 112.686 117.878C112.124 116.819 111.437 115.832 110.639 114.937C110.903 113.383 111.021 111.807 110.992 110.231L111.58 110.961ZM103.063 115.196C101.658 113.735 100.375 112.161 99.2279 110.49C100.391 107.769 101.703 105.114 103.157 102.537C108.098 106.325 107.722 106.278 108.945 107.808C109.125 109.811 109.125 111.827 108.945 113.831L103.063 115.196ZM103.369 116.725C106.169 122.96 107.298 133.195 107.886 140.018C104.949 131.424 101 123.21 96.1222 115.549C97.0761 114.245 97.9258 112.868 98.6633 111.431C99.6323 113.236 100.792 114.932 102.122 116.49C102.292 116.597 102.483 116.665 102.683 116.689C102.882 116.713 103.084 116.694 103.275 116.631L103.369 116.725ZM89.3931 66.3743C89.5845 66.4338 89.7817 66.4732 89.9813 66.4919C90.5291 66.4673 91.0543 66.2661 91.4784 65.9183C91.9025 65.5706 92.2027 65.095 92.3341 64.5626C92.7106 64.3273 92.9929 64.0685 92.9694 63.6215C92.9459 63.1744 87.8873 56.2571 94.334 52.7043C94.9026 52.6427 95.4741 52.7902 95.9417 53.1193C96.4094 53.4484 96.7412 53.9365 96.8751 54.4925C97.1795 55.7475 97.8224 56.895 98.7338 57.81C98.8051 59.3139 99.0018 60.8092 99.3221 62.2803C99.5103 63.1509 98.8515 64.2803 98.7103 65.4802C98.3809 67.833 100.663 70.4212 101.487 72.5387C102.592 75.3856 101.84 78.4443 104.475 80.9619C107.11 83.4794 106.616 81.4089 107.533 87.0557C106.436 91.4935 104.923 95.8182 103.016 99.9728C100.357 96.2082 86.8991 74.2328 84.1933 69.2212C85.205 68.6095 88.3578 66.8213 89.299 66.2802L89.3931 66.3743ZM82.3346 69.5035C84.0521 73.5034 101.157 100.608 101.157 100.843C100.334 103.455 95.6046 114.278 93.3694 115.454C88.452 111.949 74.9702 75.0798 74.0055 71.7387C76.66 70.6016 79.4524 69.8185 82.3111 69.4094L82.3346 69.5035ZM106.616 173.381C104.028 172.558 95.6751 144.206 88.2167 128.513C83.7463 119.101 74.9702 103.549 65.3942 99.4081C55.0417 94.9612 35.7955 105.62 33.7485 119.454C32.4986 128.578 33.237 137.865 35.9131 146.677C47.0185 180.252 62.0531 207.027 94.1693 214.697C94.9222 213.191 92.2635 214.438 113.392 215.003C112.356 215.808 111.255 216.525 110.098 217.144C106.145 219.285 98.6397 217.568 93.087 216.956L93.7929 215.426C60.712 208.039 45.2303 180.134 34.1485 147.194C31.3497 138.117 30.5471 128.542 31.7957 119.125C33.9132 104.161 53.8417 93.4319 64.8765 97.1494C67.6901 98.1977 70.2659 99.7975 72.4527 101.855C71.4033 92.4269 71.1436 82.9277 71.6762 73.4563C72.1086 73.0723 72.573 72.7259 73.0644 72.4211C75.0878 79.4796 86.6167 113.219 92.4753 116.96C92.8468 117.18 93.2819 117.267 93.7093 117.207C94.1367 117.147 94.5312 116.944 94.8281 116.631C100.122 125.736 105.063 135.054 107.039 144.865C108.157 150.28 108.443 155.834 107.886 161.335C104.545 147.5 95.2987 127.501 84.7815 117.925C95.534 136.489 103.369 166.182 106.875 172.04C108.277 172.427 109.709 172.694 111.157 172.84C110.545 158.723 110.075 129.289 104.098 116.513C104.828 116.513 109.98 115.407 109.98 115.407C110.91 116.523 111.7 117.748 112.333 119.054C113.298 120.913 112.968 119.501 114.427 129.383C121.486 175.005 121.086 174.769 122.003 175.264C117.392 174.675 109.275 174.181 106.616 173.381ZM122.239 163.97C113.063 111.878 112.968 110.419 109.11 88.6792C109.416 87.6439 109.651 86.7969 109.816 86.1852C111.274 88.0439 119.227 98.2317 120.098 100.467C118.804 101.62 114.145 103.596 115.557 105.173C116.192 105.902 121.439 110.443 123.086 112.09C123.98 115.878 122.568 157.382 122.239 163.97ZM64.7354 295.093C65.3942 292.105 69.6998 272.671 70.8998 269.942C71.7703 267.918 100.146 252.86 104.616 251.731C111.063 250.037 146.167 253.519 148.614 255.095C149.719 259.199 150.366 263.413 150.543 267.659C146.591 262.954 116.004 264.201 115.674 270.836C115.668 271.054 115.713 271.27 115.808 271.466C115.902 271.663 116.042 271.834 116.215 271.965C116.2 274.809 116.524 277.645 117.18 280.412C99.1103 285.282 81.0405 290.364 64.7354 295.093ZM154.449 291.423C155.649 295.305 141.555 296.976 137.485 297.446C132.652 298.135 127.731 297.887 122.992 296.717C120.921 296.152 117.086 294.646 116.357 292.764C116.004 291.87 117.157 291.023 118.004 290.576C119.077 290.016 120.215 289.589 121.392 289.306C122.673 291.072 124.392 292.474 126.38 293.376C128.732 294.411 138.779 293.682 142.261 292.929C143.791 292.599 145.414 292.152 147.72 288.458C149.132 288.67 154.049 290.129 154.449 291.423ZM143.202 290.6C141.438 291.658 128.968 292.505 127.062 291.729C120.756 289.211 117.321 279.377 117.062 272.436C122.188 273.563 127.449 273.952 132.685 273.589C136.614 273.071 145.908 271.471 149.32 269.753C151.367 277.471 147.038 288.364 143.202 290.6ZM156.355 278.459C155.718 279.719 154.823 280.831 153.729 281.722C152.634 282.614 151.365 283.266 150.002 283.635C151.233 280.335 151.816 276.828 151.72 273.306C151.905 272.917 152.175 272.574 152.509 272.302C152.843 272.029 153.234 271.835 153.652 271.731C154.071 271.628 154.507 271.618 154.929 271.703C155.352 271.789 155.75 271.966 156.096 272.224C157.861 273.377 157.084 276.459 156.355 278.459ZM398.697 84.6088C414.602 93.3848 421.661 97.0553 426.743 104.749C423.546 102 419.477 100.474 415.261 100.443C400.179 99.9257 392.768 122.254 388.909 136.701C382.509 160.794 386.439 191.286 386.086 195.757C382.015 199.545 361.169 210.368 351.852 215.426C353.146 209.968 357.758 188.91 360.769 180.604C364.816 169.452 376.463 143.477 377.239 137.83C377.451 136.159 377.121 135.948 372.18 132.748C374.086 132.748 379.239 132.23 380.839 131.924C381.521 131.924 381.874 131.618 382.133 130.183C383.003 125.195 384.698 84.0911 384.839 79.7149C384.674 79.6207 396.673 83.4559 398.767 84.6088H398.697ZM380.557 78.9855C381.628 78.9083 382.705 79.0279 383.733 79.3384C382.556 96.3965 381.38 126.395 380.274 130.23C379.027 130.466 374.604 130.771 372.886 130.889C369.216 131.101 369.122 130.889 368.745 131.407C368.369 131.924 368.886 132.63 369.569 133.101C370.769 133.948 374.769 136.465 375.333 137.124C374.79 139.925 373.954 142.662 372.839 145.288C359.546 180.581 360.346 169.734 351.405 208.439C352.002 189.898 353.715 171.411 356.534 153.076C358.416 142.983 360.699 133.501 368.298 111.902C371.286 103.549 377.474 87.5498 377.71 87.6439C378.89 84.832 379.865 81.9383 380.627 78.9855H380.557ZM339.688 223.379C340.135 225.12 340.135 224.885 339.994 224.908L339.264 224.767C339.264 224.532 337.994 200.909 338.605 191.145C339.711 173.852 341.123 155.1 342.441 137.03C343.076 128.277 345.476 109.478 345.405 110.184L347.758 108.443C348.734 110.391 349.843 112.27 351.076 114.066C351.546 114.702 352.181 115.501 352.934 115.572C352.417 119.831 344.582 172.37 342.276 205.945C341.005 224.226 342.276 220.344 340.417 222.014C340.197 222.163 340.019 222.368 339.904 222.608C339.788 222.848 339.738 223.114 339.758 223.379H339.688ZM353.664 115.596C355.452 115.596 357.381 111.831 359.734 110.231C360.652 111.196 363.428 115.807 365.263 116.419C357.475 137.783 349.146 167.57 349.17 216.744C347.17 217.826 344.464 219.379 342.464 220.532C343.641 200.509 352.158 134.795 353.734 115.596H353.664ZM378.368 83.9735C377.616 86.3263 366.44 113.313 365.663 114.56C364.45 113.371 363.369 112.053 362.44 110.631C360.463 107.972 359.781 107.102 356.416 110.89C361.404 101.479 371.145 91.9261 375.239 87.1734C379.145 82.703 378.627 83.0794 378.368 83.9735ZM325.665 34.5639C327.42 35.1046 329.298 35.1046 331.053 34.5639C332.396 33.9671 333.879 33.7553 335.335 33.9522C337.391 34.9 339.505 35.7173 341.664 36.3991C344.335 36.3756 347 36.1633 349.64 35.7639C350.85 36.3292 351.875 37.2262 352.595 38.3507C353.316 39.4752 353.703 40.781 353.711 42.1165C349.326 42.7533 345.093 44.1802 341.217 46.3281C340.979 45.5556 340.507 44.8759 339.867 44.3829C339.226 43.8898 338.448 43.6077 337.641 43.5753C333.783 43.1111 329.886 43.0637 326.018 43.4341C325.675 40.4277 325.557 37.3998 325.665 34.3757V34.5639ZM324.747 54.6336C324.159 53.5984 323.006 45.5752 324.183 44.7047C324.371 44.9399 323.547 44.2106 328.018 44.2576C331.169 44.3571 334.311 44.6399 337.429 45.1046C339.547 45.4811 339.9 46.4458 339.782 48.4927C339.782 52.2808 339.9 51.9043 339.782 53.0808C339.782 53.4102 339.641 54.2807 339.382 54.4689C334.542 55.3448 329.584 55.3368 324.747 54.4454V54.6336ZM346.37 81.1501C339.923 79.3149 334.017 79.0796 330.041 70.8917C327.477 65.6214 328.888 64.092 326.559 63.4097C325.695 63.3067 324.844 63.1176 324.018 62.845C324.018 61.2686 325.994 57.9747 326.371 56.3041C330.278 56.7713 334.227 56.7713 338.135 56.3041C340.488 55.9512 341.735 55.5512 341.358 50.775V47.1281C345.052 45.9987 352.887 44.14 353.828 43.8812C353.834 45.1611 354.008 46.4347 354.346 47.6692C354.714 48.4455 355.348 49.0635 356.134 49.4103C356.26 49.4662 356.397 49.4923 356.534 49.4866C356.671 49.481 356.806 49.4437 356.926 49.3777C357.047 49.3116 357.151 49.2187 357.23 49.106C357.309 48.9933 357.36 48.864 357.381 48.728C357.922 46.5399 358.346 44.587 358.51 43.6459C358.51 44.1635 358.722 41.9989 360.275 41.1519C362.628 39.9284 366.275 42.6577 366.534 46.5163C366.675 48.3986 364.793 51.8102 363.381 55.7395C362.534 58.0923 367.663 59.104 369.451 59.9746C370.11 61.5039 369.71 63.2215 370.604 64.1391C371.946 64.9662 373.417 65.5627 374.957 65.9037C376.58 71.1044 377.76 76.4329 378.486 81.8324C372.51 88.1145 371.169 89.6203 369.569 91.2438C363.319 97.1829 358.018 104.047 353.852 111.596C352.181 101.784 349.005 93.126 348.652 90.2791C348.37 88.0674 348.84 84.1617 347.805 82.0677C347.648 81.8185 347.438 81.6071 347.19 81.4484C346.942 81.2898 346.662 81.1879 346.37 81.1501ZM347.052 89.1262C348.181 93.3142 351.193 106.914 352.064 112.372C350.628 110.208 348.864 106.631 348.864 106.631C348.803 106.504 348.714 106.391 348.603 106.303C348.493 106.215 348.364 106.152 348.226 106.121C348.088 106.089 347.944 106.089 347.806 106.12C347.668 106.152 347.539 106.214 347.429 106.302L345.711 107.62C346.37 101.502 347.029 95.2671 347.123 89.1262H347.052ZM346.37 87.0322C346.158 104.349 342.699 119.784 341.288 137.03C336.582 195.004 336.582 192.157 337.053 212.674C334.512 194.133 330.959 158.064 329.006 138.512C330.394 137.453 337.1 132.348 337.853 130.795C338.205 130.042 337.853 129.266 336.159 129.266C333.214 129.488 330.257 129.488 327.312 129.266C329.1 121.972 339.335 95.3612 342.064 88.3027C343.452 87.9027 344.605 87.5027 346.37 87.0322ZM236.986 171.358C240.633 167.523 286.396 158.582 288.89 156.159C292.396 152.629 302.042 130.724 311.877 114.113C320.23 99.9963 324.771 94.773 341.029 88.7733C337.123 98.4434 329.5 117.36 326.065 128.372C325.853 129.054 325.547 129.807 326.065 130.254C327.359 131.524 332.77 130.771 335.876 130.818C333.688 133.007 327.665 137.453 327.665 137.453C327.549 137.539 327.457 137.654 327.399 137.786C327.342 137.918 327.32 138.063 327.335 138.206C328.324 149.124 334.394 214.274 337.029 223.732L332.794 222.65C330.056 221.306 327.084 220.506 324.041 220.297C329.406 193.616 327.477 186.157 328.135 171.617C328.135 170.111 321.783 139.853 321.736 139.618C321.736 139.518 321.696 139.422 321.625 139.352C321.555 139.281 321.459 139.242 321.359 139.242C321.259 139.242 321.164 139.281 321.093 139.352C321.022 139.422 320.983 139.518 320.983 139.618C321.383 149.923 324.3 159.735 326.3 170.981C318.771 178.04 310.889 187.804 298.066 190.98C290.137 192.98 253.009 201.074 248.068 201.427C244.021 196.91 236.351 174.369 236.986 171.358ZM232.516 174.487C232.516 174.487 235.339 173.805 235.292 173.358C237.49 181.625 240.257 189.731 243.574 197.616C241.435 198.277 239.249 198.773 237.034 199.098C235.692 199.098 236.634 200.274 233.363 192.51C231.348 187.683 229.619 182.741 228.187 177.71C227.787 176.087 227.105 176.252 232.516 174.487ZM204.964 179.452C206.823 177.405 208.164 177.099 226.752 179.452C228.405 185.062 230.409 190.563 232.751 195.921C228.926 198.903 224.542 201.088 219.858 202.345C219.717 201.333 219.387 201.639 220.187 201.709C220.863 201.729 221.534 201.596 222.152 201.321C222.769 201.046 223.317 200.636 223.755 200.121C224.193 199.606 224.51 199 224.683 198.346C224.855 197.693 224.879 197.009 224.752 196.345C224.563 193.992 217.834 189.098 215.929 187.757C217.06 187.99 218.234 187.9 219.317 187.498C219.413 187.467 219.494 187.399 219.54 187.308C219.586 187.218 219.595 187.113 219.564 187.016C219.533 186.919 219.464 186.839 219.374 186.793C219.283 186.746 219.178 186.738 219.081 186.769C215.129 187.804 211.129 183.098 210.611 182.957C208.8 182.51 209.929 186.722 205.906 189.239C205.317 189.616 203.059 188.769 202.917 187.616C202.621 186.189 202.652 184.713 203.006 183.299C203.36 181.886 204.03 180.57 204.964 179.452ZM178.66 186.863C181.671 185.781 197.012 181.028 201.435 182.157C200.937 184.037 200.825 185.998 201.106 187.922C201.255 188.533 201.535 189.105 201.925 189.598C202.316 190.091 202.808 190.495 203.369 190.781C203.929 191.066 204.545 191.228 205.173 191.254C205.802 191.281 206.429 191.171 207.011 190.933C208.651 189.84 209.884 188.235 210.517 186.369C212.611 187.639 223.011 194.533 222.869 196.98C222.869 198.627 221.999 200.015 220.352 199.874C218.962 199.376 217.647 198.687 216.446 197.827C215.238 196.862 213.964 195.982 212.635 195.192C212.423 195.082 212.179 195.055 211.948 195.114C211.717 195.174 211.517 195.317 211.386 195.516C211.254 195.715 211.201 195.955 211.236 196.19C211.271 196.426 211.392 196.64 211.576 196.792C211.576 196.792 213.34 198.11 215.293 199.38C218.234 201.733 219.246 203.898 215.599 205.003C215.028 205.173 214.429 205.223 213.837 205.15C213.246 205.077 212.677 204.883 212.164 204.58C211.565 203.396 210.769 202.322 209.811 201.404C209.384 200.304 208.618 199.37 207.623 198.735C206.629 198.101 205.459 197.799 204.282 197.874C203.059 198.015 202.964 198.627 203.082 198.063C203.647 195.263 200.07 193.569 197.576 194.039C193.553 194.839 191.318 200.157 190 204.039C189.2 205.733 192.353 203.85 178.589 208.744C178.977 201.911 178.977 195.061 178.589 188.228C178.471 186.604 178.424 186.981 178.66 186.863ZM190.659 204.298C191.953 201.521 194.8 196.321 197.835 195.851C199.012 195.639 201.388 196.439 201.129 197.639C200.62 200.825 199.151 203.78 196.918 206.109C197.2 206.58 189.836 206.721 190.659 204.298ZM203.976 199.804C204.541 199.239 207.835 200.392 207.929 202.156C208.094 205.098 205.294 208.603 202.87 210.227C202.094 210.768 199.035 208.274 198.329 207.262C200.01 204.629 201.898 202.135 203.976 199.804ZM207.952 207.639C208.117 207.403 210.47 202.18 210.87 206.509C211.035 208.203 208.517 209.097 206.87 208.862C207.253 208.474 207.614 208.066 207.952 207.639ZM260.28 238.225C250.374 245.919 248.962 256.036 250.586 268.106C234.681 262.46 222.54 258.695 217.811 258.295C211.41 258.427 205.04 259.215 198.8 260.648C199.435 254.319 199.153 232.108 194.659 227.544C190.165 222.979 173.86 216.744 167.719 214.391H169.107C169.648 214.109 168.754 211.638 170.801 211.497C173.272 211.356 176.73 212.297 177.86 211.309C178.197 210.797 178.392 210.204 178.424 209.591C181.013 208.768 187.106 206.909 190.189 206.109C191.225 206.932 192.438 207.502 193.732 207.776C195.026 208.049 196.367 208.018 197.647 207.686C198.353 209.262 201.647 212.721 203.694 211.591C204.262 211.263 204.804 210.894 205.317 210.485C206.806 210.898 208.386 210.832 209.835 210.297C210.601 210.088 211.285 209.649 211.795 209.039C212.304 208.429 212.613 207.677 212.682 206.886C213.914 207.239 215.227 207.183 216.424 206.725C217.621 206.266 218.636 205.431 219.317 204.345C224.475 203.185 229.303 200.868 233.434 197.568C233.881 198.533 234.304 199.357 234.657 199.921C234.774 200.12 234.938 200.286 235.136 200.405C235.333 200.524 235.556 200.592 235.787 200.604C238.139 200.839 243.692 198.251 243.927 198.251C244.733 199.932 245.736 201.512 246.915 202.956C247.339 203.38 248.045 203.262 248.704 203.192C255.527 202.368 289.408 195.074 298.466 192.816C310.23 189.875 317.901 181.616 325.971 173.758C325.524 187.263 327.288 193.851 321.947 220.367C310.842 221.748 299.838 223.855 289.008 226.673C279.526 229.379 268.232 232.061 260.28 238.249V238.225ZM294.607 284.647L293.784 284.317C293.596 272.365 296.56 261.354 305.313 253.189C306.087 253.387 306.873 253.536 307.666 253.637C298.654 261.354 295.102 272.6 294.607 284.647ZM331.759 245.425C324.7 249.566 326.771 251.801 320.3 252.484C315.117 252.84 309.909 252.435 304.842 251.284C300.748 249.966 302.913 248.39 307.195 247.919C307.925 248.037 313.665 248.084 316.371 247.919C316.592 247.884 316.794 247.771 316.939 247.601C317.084 247.43 317.164 247.214 317.164 246.99C317.164 246.766 317.084 246.549 316.939 246.379C316.794 246.209 316.592 246.096 316.371 246.06C313.32 245.798 310.253 245.751 307.195 245.919C305.247 245.891 303.308 245.662 301.407 245.237C301.218 244.928 301.108 244.578 301.087 244.216C301.067 243.855 301.136 243.494 301.289 243.166C303.76 241.684 315.407 242.249 317.336 242.178C317.563 242.142 317.77 242.027 317.919 241.852C318.068 241.677 318.15 241.455 318.15 241.225C318.15 240.995 318.068 240.773 317.919 240.599C317.77 240.424 317.563 240.308 317.336 240.272C313.475 240.354 309.614 240.15 305.783 239.661C304.136 239.378 300.301 238.555 300.584 236.884C301.101 233.873 307.289 236.461 311.642 236.155C314.713 236.109 317.753 235.536 320.63 234.461C320.845 234.395 321.026 234.247 321.131 234.048C321.237 233.85 321.26 233.617 321.194 233.402C321.129 233.187 320.981 233.006 320.782 232.9C320.583 232.795 320.351 232.772 320.136 232.837C317.192 233.545 314.205 234.064 311.195 234.39C311.004 234.351 310.834 234.243 310.717 234.087C310.6 233.931 310.544 233.738 310.56 233.543C310.593 233.104 310.705 232.673 310.889 232.273C312.102 230.691 313.731 229.477 315.595 228.767C322.277 225.991 327.359 228.767 335.006 229.261C335.965 233.612 337.183 237.902 338.653 242.108C336.308 243.045 334.035 244.154 331.853 245.425H331.759ZM340.747 242.555C339.923 239.778 336.864 229.708 336.559 227.355C337.773 226.762 339.052 226.312 340.37 226.014C341.452 230.038 343.452 237.025 344.746 240.931C343.484 241.563 342.179 242.105 340.841 242.555H340.747ZM347.405 242.555C346.158 239.731 342.464 226.579 341.617 223.285C345.664 219.967 381.992 202.109 387.403 196.674C389.097 194.98 383.38 163.099 390.086 136.865C393.662 122.748 400.673 100.561 415.143 101.055C425.072 101.384 430.743 108.961 433.966 118.419C439.872 135.83 437.519 159.994 437.519 159.758C437.519 179.499 430.46 209.168 416.343 223.285C405.685 233.967 354.04 243.755 347.499 242.625L347.405 242.555ZM444.413 260.436C441.66 259.707 429.025 255.048 423.684 254.601C395.944 252.248 397.662 246.978 380.509 239.449C389.921 237.096 410.838 231.637 417.778 224.767C432.437 210.227 439.213 180.252 439.142 159.97C439.687 152.867 439.687 145.733 439.142 138.63C444.342 168.134 447.542 251.495 444.413 260.436Z" fill="black"/>
<path fill-rule="evenodd" clip-rule="evenodd" d="M80.617 101.384L72.8997 102.279C75.2523 104.491 77.3948 106.917 79.2994 109.525L81.4405 102.467C81.5058 102.34 81.5339 102.198 81.5215 102.056C81.5092 101.914 81.4569 101.779 81.3706 101.665C81.2844 101.552 81.1679 101.466 81.0345 101.416C80.9011 101.366 80.7563 101.355 80.617 101.384ZM303.807 316.104C301.866 314.876 299.724 313.999 297.478 313.516C302.819 304.834 301.854 294.693 300.442 293.799C299.114 292.445 297.345 291.611 295.454 291.447C288.396 289.964 271.291 289.847 266.773 293.611C265.785 294.435 265.197 295.776 266.162 296.67C265.702 302.247 266.871 307.837 269.526 312.763C267.173 313.21 264.444 314.104 263.55 316.222C263.396 316.677 263.354 317.163 263.427 317.638C263.501 318.114 263.689 318.564 263.973 318.951C265.78 321.191 268.252 322.798 271.032 323.539C275.943 325.034 281.095 325.569 286.208 325.116C291.093 324.917 295.936 324.127 300.631 322.763C305.83 320.833 305.783 317.657 303.807 316.104ZM266.985 297.093C272.043 298.475 277.272 299.124 282.514 299.023C288.229 298.632 293.873 297.525 299.313 295.729C299.784 298.966 299.611 302.264 298.804 305.433C297.996 308.603 296.57 311.582 294.607 314.198C294.133 315.03 293.449 315.721 292.623 316.204C291.797 316.688 290.859 316.945 289.902 316.951C286.608 317.375 277.62 317.61 275.785 316.787C269.832 314.034 266.891 304.034 266.985 297.093ZM286.114 322.975C281.257 323.435 276.357 322.939 271.691 321.516C269.578 320.94 267.634 319.867 266.02 318.387C265.644 317.987 265.032 317.187 265.22 316.692C265.832 315.14 268.82 314.34 270.467 314.057C271.646 315.855 273.266 317.322 275.173 318.316C277.526 319.516 290.561 319.375 292.984 318.128C294.495 317.206 295.774 315.95 296.725 314.457C298.113 314.857 302.96 316.504 303.289 317.822C304.348 321.869 290.349 322.833 286.114 323.092V322.975Z" fill="black"/>
</svg>
