<svg width="448" height="361" viewBox="0 0 448 361" fill="none" xmlns="http://www.w3.org/2000/svg">
<path d="M110.987 217.601L116.487 213.101L125.487 179.101L127.987 153.601L128.987 113.101L114.987 89.6006L108.487 84.1006L107.487 88.6006L103.487 100.101L101.987 101.101L92.9868 86.1006L82.9868 68.1006L74.9868 70.1006L68.9868 72.6006L64.9868 89.6006L46.4868 93.1006L31.4868 109.601L26.4868 128.601L39.9868 174.601L60.4868 202.601L88.9868 217.601L102.987 219.101L110.987 217.601Z" fill="white" fill-opacity="0.1"/>
<path d="M326.487 194.101L321.987 221.101L327.487 224.101L340.487 225.101L345.987 243.101H350.487L377.987 238.601L390.487 246.101L406.487 253.101L423.987 255.101L433.987 257.601L444.487 261.601L445.987 252.101V224.101L444.987 196.601L441.987 158.601L439.487 139.101L437.987 133.101L433.987 117.601L429.487 108.601L424.987 101.601L421.487 98.1006L415.987 94.1006L396.987 83.1006L386.487 79.6006L380.487 78.1006L379.987 78.6006L378.987 81.6006L361.487 100.101L352.987 113.101L347.487 89.1006L346.987 86.1006L340.987 87.6006L330.487 92.1006L322.987 97.1006L317.987 102.601L308.487 117.601L299.487 134.101L287.987 155.101L281.987 157.101L240.987 167.601L235.487 170.601V173.601L243.987 197.101L246.987 202.101H249.987L287.987 193.601L302.487 190.101L312.487 184.101L326.487 171.101V178.101V194.101Z" fill="white" fill-opacity="0.1"/>
<path fill-rule="evenodd" clip-rule="evenodd" d="M123.42 54.352V56.0225C123.42 56.4905 123.606 56.9394 123.937 57.2703C124.268 57.6012 124.717 57.7871 125.185 57.7871C125.653 57.7871 126.101 57.6012 126.432 57.2703C126.763 56.9394 126.949 56.4905 126.949 56.0225V54.2579C126.925 53.7939 126.724 53.3569 126.386 53.0373C126.049 52.7176 125.602 52.5397 125.138 52.5403C124.905 52.5433 124.675 52.5929 124.462 52.6861C124.249 52.7794 124.056 52.9145 123.896 53.0834C123.736 53.2523 123.611 53.4516 123.53 53.6695C123.448 53.8874 123.411 54.1195 123.42 54.352ZM122.738 49.4346C125.326 48.8228 127.443 47.0817 123.679 47.317C122.746 47.4471 121.826 47.6516 120.926 47.9288C117.397 49.3875 120.455 49.9757 122.738 49.4346ZM338.61 65.8103C337.526 68.0851 335.712 69.932 333.458 71.0571C333.37 71.0883 333.296 71.1489 333.249 71.2286C333.201 71.3083 333.182 71.402 333.196 71.4939C333.21 71.5857 333.256 71.6698 333.325 71.7317C333.394 71.7937 333.483 71.8297 333.575 71.8336C334.337 71.9677 335.12 71.912 335.855 71.6716C336.589 71.4312 337.254 71.0133 337.789 70.4551C338.324 69.8968 338.713 69.2153 338.922 68.4708C339.131 67.7264 339.153 66.9419 338.987 66.1868C338.987 66.0869 338.947 65.9912 338.877 65.9206C338.806 65.85 338.71 65.8103 338.61 65.8103ZM329.246 47.1523C328.794 47.0365 328.314 47.1022 327.91 47.3352C327.505 47.5682 327.208 47.9501 327.081 48.3993C326.868 49.1652 326.828 49.9689 326.964 50.7522C326.964 51.2202 327.15 51.669 327.481 51.9999C327.812 52.3309 328.26 52.5168 328.728 52.5168C329.196 52.5168 329.645 52.3309 329.976 51.9999C330.307 51.669 330.493 51.2202 330.493 50.7522C330.493 49.0581 330.87 47.5994 329.246 47.1523ZM248.332 278.318C246.426 277.354 209.981 279.73 209.063 283.824C208.875 284.718 209.463 288.153 210.498 288.718C212.545 289.8 247.603 287.824 249.532 284.012C250.08 283.085 250.262 281.986 250.039 280.932C249.817 279.878 249.208 278.945 248.332 278.318ZM210.945 287.73C210.22 286.59 209.829 285.269 209.816 283.918C210.287 281.801 229.698 280.648 231.839 280.507C231.788 282.408 232.277 284.284 233.25 285.918C230.568 286.342 212.216 288.412 210.945 287.8V287.73ZM247.814 283.024C245.956 284.342 236.521 285.542 234.262 285.824C234.46 283.962 234.065 282.084 233.133 280.46C235.933 280.271 244.897 279.777 247.556 280.013C248.261 280.53 248.285 282.13 247.814 283.071V283.024ZM186.499 283.895C186.436 283.855 186.363 283.834 186.288 283.834C186.213 283.834 186.139 283.855 186.076 283.895C186.076 283.659 141.137 308.976 139.772 311.658C139.711 311.787 139.68 311.928 139.68 312.07C139.68 312.212 139.711 312.353 139.772 312.482C141.207 316.599 188.099 358.997 190.052 359.962C190.617 360.244 191.323 359.75 193.534 358.574C198.24 356.056 238.403 334.598 242.544 331.14C243.697 329.963 244.403 319.375 243.768 318.176C243.132 316.976 186.499 284.13 186.499 283.895ZM190.57 358.009C185.558 354.033 145.866 318.27 141.466 312.199C145.56 308.341 185.158 285.4 186.358 284.695C192.429 288.389 236.121 314.976 241.721 318.74C238.761 319.596 235.946 320.888 233.368 322.575C232.027 323.869 235.368 326.269 240.003 330.763C232.921 335.328 197.793 354.15 190.57 358.009ZM241.344 329.422C241.109 329.187 235.438 323.658 235.18 323.446C237.465 322.019 239.821 320.708 242.238 319.517C242.246 322.841 241.93 326.158 241.297 329.422H241.344Z" fill="white"/>
<path fill-rule="evenodd" clip-rule="evenodd" d="M221.792 325.093C220.145 325.799 200.052 332.457 194.381 334.763C192.715 335.593 190.899 336.082 189.04 336.198C188.711 336.198 190.617 332.528 205.04 321.281C206.545 320.105 209.439 317.87 209.745 316.034C211.133 309.964 194.687 319.046 179.982 324.787C178.461 325.604 176.802 326.13 175.088 326.34C174.923 325.375 178.241 322.34 178.453 322.105C187.229 312.411 198.358 308.411 197.605 304.835C196.452 299.235 176.029 310.129 171.723 311.893C168.1 313.423 162.312 315.258 162.665 315.258C161.889 315.564 162.665 316.105 162.806 316.034C162.947 315.964 170.406 313.682 172.218 312.882C174.923 311.846 193.017 303.117 196.028 305.164C197.228 306.011 184.429 312.905 177.206 320.881C175.935 322.246 172.5 325.022 173.559 327.281C173.753 327.63 174.047 327.913 174.404 328.093C174.76 328.274 175.162 328.343 175.559 328.293C179.064 328.293 202.969 316.317 207.887 315.94C206.758 317.43 205.409 318.739 203.887 319.822C200.381 322.599 190.217 330.881 187.864 334.692C186.64 336.669 187.652 337.845 189.252 337.869C191.37 337.869 193.958 336.433 200.334 334.034C221.956 325.704 222.639 326.081 222.286 325.305C222.268 325.258 222.24 325.215 222.206 325.179C222.171 325.143 222.129 325.115 222.083 325.095C222.037 325.075 221.988 325.065 221.938 325.064C221.888 325.064 221.838 325.074 221.792 325.093Z" fill="white"/>
<path fill-rule="evenodd" clip-rule="evenodd" d="M447.029 235.379C446.723 210.768 444.511 160.535 439.641 136.183C437.076 123.266 431.523 105.597 421.194 97.0558C416.818 93.4559 410.371 89.9973 398.678 83.527C398.819 83.2211 380.208 75.692 379.337 78.186C378.615 73.8948 377.601 69.6578 376.302 65.5042C378.043 64.9396 377.267 59.8574 377.996 56.987C378.726 54.1165 381.479 52.0695 382.89 49.7167C386.067 44.4699 386.608 35.3174 386.02 29.2235C385.455 23.5532 377.173 10.8949 371.714 8.82441C366.256 6.75392 360.656 6.8245 354.892 5.67161C350.186 4.70695 346.704 2.0953 341.433 1.43651C336.163 0.777715 333.01 3.78935 328.493 3.78935C323.975 3.78935 318.893 0.283618 314.164 0.00127803C311.595 -0.0385853 309.098 0.855272 307.138 2.51688C305.178 4.17849 303.887 6.49496 303.506 9.03617C302.935 12.8239 303.384 16.6953 304.806 20.2518C306.229 23.8083 308.574 26.9214 311.599 29.2706C315.283 31.601 319.422 33.1172 323.74 33.7174C323.458 45.7404 324.728 42.517 323.316 43.5758C321.905 44.6346 322.352 52.046 322.846 54.093C323.058 54.9165 323.269 55.2223 324.281 55.5517C323.716 57.9046 319.74 62.9867 323.316 64.2337C323.787 64.3984 325.669 64.7278 325.858 64.7984C326.34 67.0297 327.049 69.2056 327.975 71.2922C328.888 73.39 330.221 75.2783 331.892 76.8404C333.564 78.4025 335.538 79.6052 337.692 80.3742C341.08 81.6917 343.763 82.0447 345.739 82.727C346.011 83.7 346.154 84.7047 346.163 85.7151C337.76 87.9235 329.845 91.6819 322.822 96.797C310.094 107.126 292 149.971 287.271 154.677C285.436 156.488 242.214 164.865 235.838 169.194C234.591 170.041 234.544 170.77 234.709 172.276C233.156 172.558 226.615 173.782 225.886 175.17C225.67 176.178 225.727 177.226 226.05 178.205C220.228 177.118 214.354 176.333 208.451 175.852C207.371 175.877 206.308 176.129 205.331 176.591C204.354 177.053 203.485 177.715 202.781 178.534C200.804 180.887 202.404 180.487 200.31 180.158C195.863 179.523 179.935 184.864 177.935 185.805C177.935 184.958 177.935 184.37 177.041 183.899C174.415 183.138 171.671 182.867 168.947 183.099C167.3 184.205 173.653 183.828 176.288 185.193C176.288 187.005 176.523 205.592 176.288 209.239C176.288 209.898 176.288 209.804 175.794 209.874C173.441 210.204 170.053 209.874 169.017 210.627C169.394 202.439 169.017 182.393 167.888 181.217C167.206 180.511 154.642 179.005 140.972 177.358C141.02 167.468 140.47 157.583 139.325 147.759C136.807 125.925 131.537 100.185 115.067 87.1268C116.021 87.5165 117.072 87.6068 118.079 87.3856C119.423 86.852 120.87 86.6269 122.314 86.7268C124.667 87.3621 124.972 89.0797 130.854 85.1269C131.231 84.8681 132.219 84.9387 132.996 84.1622C135.654 81.5035 134.313 77.9037 134.313 75.2215C134.703 73.398 134.83 71.5281 134.69 69.6688C134.617 69.3916 134.482 69.1348 134.295 68.9185C134.107 68.7022 133.872 68.5322 133.607 68.4218C133.607 67.6453 134.431 66.2572 133.254 64.7513C134.948 63.8573 136.784 62.822 135.843 60.9868C134.045 58.1114 132.562 55.0507 131.419 51.8578C130.69 49.1285 131.678 45.6463 131.631 42.7053C131.631 40.6818 131.843 38.2584 131.631 36.0467C133.446 34.7796 134.832 32.9908 135.607 30.9175C135.779 30.0795 135.742 29.2121 135.5 28.3916C135.258 27.5711 134.818 26.8226 134.219 26.2119C133.443 25.7178 133.278 26.2119 133.301 24.7531C133.387 24.2412 133.363 23.7171 133.234 23.2147C133.104 22.7122 132.871 22.2424 132.549 21.8356C131.56 20.8709 129.302 19.8122 128.596 18.824C127.396 17.0593 126.69 15.2947 124.431 14.5889C122.831 14.0712 121.326 15.083 120.243 14.73C118.761 14.2595 117.232 12.6595 115.538 14.3536C115.159 14.5587 114.744 14.6871 114.316 14.7315C113.888 14.7759 113.456 14.7354 113.044 14.6124C111.632 13.4124 111.279 11.342 108.879 10.8949C107.514 10.6596 104.832 11.3184 103.797 10.8949C102.101 9.64653 100.23 8.65549 98.2442 7.95387C96.0243 7.74246 93.7846 7.93376 91.6327 8.51855C90.1269 8.82442 88.1976 8.65972 86.6212 8.895C83.3507 9.41262 82.4096 12.236 80.245 13.6007C78.0804 14.9653 74.4335 14.9888 72.363 18.0475C70.6219 20.6357 70.9983 23.4355 70.316 26.0237C70.0337 27.1295 68.5279 28.3765 67.9632 29.5058C66.6456 32.1175 67.6573 34.7527 67.6338 37.0114C67.6103 39.2701 66.0339 41.3406 66.4809 44.0699C66.8441 45.433 67.4412 46.7227 68.2455 47.8815C68.2553 48.2629 68.2077 48.6436 68.1044 49.0109C67.3866 50.8624 67.2391 52.8863 67.6808 54.8224C68.0659 56.6785 68.9624 58.3899 70.269 59.7633C71.916 61.1986 72.763 60.8221 73.9629 62.8691C74.4676 63.9515 75.2263 64.8959 76.1746 65.6219C77.9157 66.7983 80.0568 65.7866 81.092 66.3042C81.7361 66.6443 82.4385 66.8599 83.1625 66.9395C82.5833 67.2322 82.083 67.6599 81.7038 68.1865C68.9043 69.8099 52.011 79.1507 41.7055 91.9266C37.6351 97.1734 30.7884 104.75 28.2238 110.82C14.4362 141.971 21.1653 190.816 15.6126 205.898L1.87203 241.732C1.21323 243.449 -0.48081 251.99 0.130927 254.931C1.11912 259.307 5.70715 253.825 8.50702 250.719C6.76592 256.907 6.78945 258.531 5.87185 282.883C5.58951 290.506 5.33069 298.811 5.21305 305.799C5.20631 305.85 5.21042 305.901 5.22511 305.949C5.23979 305.997 5.26472 306.042 5.29819 306.08C5.33166 306.118 5.37289 306.148 5.4191 306.169C5.4653 306.189 5.51539 306.2 5.56598 306.199C6.22477 306.199 5.80126 306.952 6.76592 287.518C7.44825 273.848 8.22468 261.095 8.29527 260.06C8.64355 256.039 9.52985 252.082 10.9304 248.296C17.5012 243.387 24.8952 239.69 32.7648 237.379C41.5231 235.036 50.7719 235.273 59.3989 238.061C61.7517 238.838 68.0808 240.414 70.3396 239.355C75.0452 237.002 87.1623 229.215 89.1622 224.485C90.1504 222.133 90.9504 220.227 91.7268 218.462C95.3267 218.792 99.75 219.709 103.679 219.756C108.079 219.756 110.902 219.05 115.773 214.745C133.678 215.145 153.418 214.603 162.83 214.251C169.112 216.603 188.405 223.497 193.087 228.132C194.922 229.92 196.005 234.908 196.663 240.461C197.531 247.098 197.759 253.803 197.346 260.484C184.452 262.954 168.029 266.86 155.324 270.013C154.612 269.815 153.869 269.759 153.136 269.848C149.771 270.201 151.348 271.566 150.242 268.154C150.295 268.166 150.35 268.166 150.403 268.151C150.455 268.137 150.503 268.111 150.543 268.073C150.583 268.036 150.612 267.989 150.63 267.938C150.647 267.886 150.651 267.831 150.642 267.778C150.607 263.255 150.079 258.75 149.065 254.343C148.901 253.684 147.748 253.355 147.042 253.143C139.419 250.931 109.985 247.967 103.515 249.637C99.303 250.743 70.1513 265.801 68.8337 269.001C67.5161 272.201 63.9398 291.447 63.281 295C48.0347 299.447 36.0117 303.117 30.1296 305.117C30.0808 305.133 30.0358 305.158 29.9973 305.192C29.9587 305.226 29.9275 305.267 29.9055 305.313C29.8835 305.36 29.8711 305.41 29.8692 305.461C29.8673 305.512 29.8758 305.563 29.8943 305.611C30.1766 306.482 37.8939 302.482 116.949 281.706C117.744 283.735 118.762 285.668 119.984 287.471C117.632 288.036 114.973 289.071 114.196 291.235C114.058 291.692 114.036 292.176 114.13 292.644C114.224 293.112 114.433 293.55 114.738 293.918C116.668 296.079 119.241 297.564 122.078 298.153C127.053 299.4 132.223 299.671 137.301 298.953C142.178 298.527 146.983 297.5 151.607 295.894C156.642 293.776 156.312 290.624 154.383 289.188C152.395 288.019 150.21 287.222 147.936 286.836C150.077 282.953 148.077 284.671 151.277 283.895C153.088 283.462 154.742 282.533 156.053 281.212C158.124 279.095 159.512 273.871 157.536 271.354C167.465 269.001 207.392 259.119 217.157 259.849C234.873 261.143 363.691 314.105 394.184 324.316C394.232 324.332 394.282 324.337 394.332 324.333C394.383 324.329 394.431 324.315 394.476 324.293C394.521 324.27 394.561 324.238 394.593 324.2C394.626 324.161 394.651 324.117 394.666 324.069C394.682 324.021 394.688 323.971 394.683 323.921C394.679 323.87 394.666 323.822 394.643 323.777C394.62 323.732 394.588 323.692 394.55 323.66C394.511 323.627 394.467 323.602 394.419 323.587C386.443 320.81 368.656 313.728 347.362 305.211C348.398 302.717 351.127 294.67 353.245 291.894C354.115 290.765 354.068 290.671 361.832 291.118C382.184 292.294 400.113 291.753 419.642 285.518C431.57 281.683 437.429 272.836 440.817 261.001C441.499 261.213 443.358 261.825 444.017 261.966C444.205 262.012 444.401 262.012 444.589 261.967C444.777 261.922 444.952 261.833 445.099 261.707C447.429 259.331 447.029 240.014 447.029 235.379ZM125.208 73.598C124.571 73.83 123.883 73.8869 123.217 73.7627C122.551 73.6386 121.93 73.3379 121.42 72.8921C120.912 72.4857 120.514 71.9581 120.263 71.3578C120.013 70.7576 119.917 70.104 119.984 69.457C119.953 69.3603 119.962 69.2551 120.008 69.1647C120.054 69.0742 120.135 69.0059 120.231 68.9747C120.328 68.9435 120.433 68.952 120.524 68.9983C120.614 69.0446 120.683 69.125 120.714 69.2217C121.875 70.8926 123.516 72.1722 125.419 72.8921C125.48 72.9423 125.525 73.0091 125.547 73.0844C125.57 73.1597 125.57 73.24 125.548 73.3153C125.525 73.3906 125.481 73.4576 125.42 73.5079C125.36 73.5582 125.286 73.5895 125.208 73.598ZM103.115 52.9872C103.195 52.2959 103.473 51.6425 103.915 51.1049C104.432 50.5873 106.009 50.9167 107.114 50.1637C107.941 49.5101 108.569 48.638 108.926 47.6462C110.244 45.0346 112.338 47.058 115.255 42.7523C116 41.5415 116.578 40.2356 116.973 38.8701C118.62 38.0937 120.761 39.2231 122.831 35.8114C123.514 34.6586 123.961 33.4586 125.184 33.1292C126.102 34.1174 127.019 37.8349 130.737 36.3997C130.737 37.6702 130.455 44.0934 130.384 44.6111C130.079 46.1617 129.914 47.7366 129.89 49.3167C129.89 54.0224 132.054 56.6105 134.454 61.5279C134.831 62.3044 132.854 63.0573 131.866 63.5984C130.472 63.0849 129.03 62.7144 127.561 62.4926C122.996 61.3868 119.349 63.7631 115.42 64.8454C114.754 64.8496 114.09 64.7706 113.444 64.6102C111.961 64.469 110.408 65.9748 108.314 66.2571C107.768 66.3643 107.203 66.305 106.691 66.0868C106.179 65.8686 105.745 65.5017 105.444 65.0337C105.19 64.1719 105.009 63.2905 104.903 62.3985C104.691 61.5515 104.432 60.7045 104.244 59.881C103.867 58.1869 104.973 57.5281 103.679 55.1753C102.785 53.5754 102.809 54.2812 103.115 52.9872ZM104.009 100.985C105.593 97.9785 106.885 94.827 107.867 91.5737C109.185 99.7615 109.891 103.903 110.22 105.973C108.503 104.538 108.338 103.997 104.009 100.891V100.985ZM111.067 110.561C112.22 117.62 111.961 116.02 112.173 117.478C111.611 116.42 110.924 115.432 110.126 114.537C110.389 112.983 110.508 111.408 110.479 109.832L111.067 110.561ZM102.55 114.796C101.145 113.335 99.8621 111.761 98.7148 110.09C99.8781 107.37 101.19 104.715 102.644 102.138C107.585 105.926 107.208 105.879 108.432 107.408C108.612 109.412 108.612 111.428 108.432 113.432L102.55 114.796ZM102.856 116.325C105.656 122.561 106.785 132.795 107.373 139.619C104.436 131.024 100.487 122.81 95.609 115.149C96.5629 113.846 97.4126 112.469 98.1501 111.032C99.1192 112.836 100.279 114.532 101.609 116.09C101.779 116.197 101.97 116.265 102.169 116.29C102.369 116.314 102.571 116.294 102.762 116.231L102.856 116.325ZM88.8799 65.9748C89.0714 66.0343 89.2685 66.0737 89.4681 66.0924C90.016 66.0678 90.5411 65.8666 90.9652 65.5189C91.3893 65.1711 91.6895 64.6955 91.8209 64.1631C92.1974 63.9278 92.4797 63.669 92.4562 63.222C92.4327 62.7749 87.3741 55.8576 93.8209 52.3048C94.3894 52.2432 94.9609 52.3907 95.4285 52.7198C95.8962 53.0489 96.228 53.537 96.3619 54.093C96.6663 55.348 97.3093 56.4955 98.2207 57.4105C98.2919 58.9144 98.4887 60.4097 98.8089 61.8809C98.9971 62.7514 98.3383 63.8808 98.1971 65.0807C97.8677 67.4336 100.15 70.0217 100.973 72.1392C102.079 74.9862 101.326 78.0449 103.962 80.5624C106.597 83.0799 106.103 81.0094 107.02 86.6562C105.923 91.094 104.41 95.4187 102.503 99.5733C99.8441 95.8088 86.3859 73.8333 83.6801 68.8217C84.6918 68.21 87.8447 66.4218 88.7858 65.8807L88.8799 65.9748ZM81.8214 69.1041C83.539 73.1039 100.644 100.209 100.644 100.444C99.8206 103.055 95.0914 113.879 92.8562 115.055C87.9388 111.549 74.457 74.6803 73.4924 71.3393C76.1468 70.2021 78.9392 69.419 81.7979 69.01L81.8214 69.1041ZM106.103 172.982C103.515 172.158 95.162 143.807 87.7035 128.113C83.2331 118.702 74.457 103.15 64.881 99.0086C54.5285 94.5618 35.2823 105.22 33.2353 119.055C31.9854 128.179 32.7239 137.465 35.3999 146.277C46.5053 179.852 61.5399 206.627 93.6562 214.298C94.4091 212.792 91.7504 214.039 112.879 214.603C111.843 215.409 110.741 216.125 109.585 216.745C105.632 218.886 98.1265 217.168 92.5738 216.556L93.2797 215.027C60.1988 207.639 44.7172 179.734 33.6353 146.795C30.8366 137.717 30.0339 128.142 31.2825 118.725C33.4 103.761 53.3285 93.0324 64.3633 96.7499C67.1769 97.7982 69.7527 99.3981 71.9395 101.456C70.8902 92.0275 70.6304 82.5282 71.163 73.0568C71.5954 72.6728 72.0598 72.3265 72.5512 72.0216C74.5747 79.0801 86.1036 112.82 91.9621 116.561C92.3336 116.78 92.7687 116.867 93.1961 116.808C93.6236 116.748 94.018 116.545 94.3149 116.231C99.6088 125.337 104.55 134.654 106.526 144.465C107.644 149.88 107.93 155.434 107.373 160.935C104.032 147.101 94.7855 127.101 84.2683 117.525C95.0208 136.089 102.856 165.782 106.361 171.641C107.764 172.027 109.196 172.295 110.644 172.441C110.032 158.324 109.561 128.89 103.585 116.114C104.315 116.114 109.467 115.008 109.467 115.008C110.396 116.124 111.187 117.348 111.82 118.655C112.785 120.514 112.455 119.102 113.914 128.984C120.973 174.605 120.573 174.37 121.49 174.864C116.879 174.276 108.761 173.782 106.103 172.982ZM121.725 163.57C112.549 111.479 112.455 110.02 108.597 88.2797C108.903 87.2444 109.138 86.3974 109.303 85.7857C110.761 87.6444 118.714 97.8322 119.584 100.067C118.29 101.22 113.632 103.197 115.043 104.773C115.679 105.502 120.926 110.043 122.573 111.69C123.467 115.478 122.055 156.983 121.725 163.57ZM64.2222 294.694C64.881 291.706 69.1867 272.271 70.3866 269.542C71.2572 267.519 99.6324 252.461 104.103 251.331C110.55 249.637 145.654 253.119 148.101 254.696C149.205 258.8 149.853 263.014 150.03 267.26C146.077 262.554 115.49 263.801 115.161 270.436C115.155 270.654 115.2 270.87 115.294 271.067C115.389 271.263 115.528 271.434 115.702 271.566C115.687 274.41 116.011 277.245 116.667 280.012C98.5971 284.883 80.5273 289.965 64.2222 294.694ZM153.936 291.024C155.136 294.906 141.042 296.576 136.972 297.047C132.139 297.735 127.218 297.488 122.478 296.317C120.408 295.753 116.573 294.247 115.843 292.365C115.49 291.471 116.643 290.624 117.49 290.177C118.564 289.616 119.701 289.189 120.878 288.906C122.16 290.672 123.879 292.075 125.866 292.976C128.219 294.012 138.266 293.282 141.748 292.529C143.277 292.2 144.901 291.753 147.207 288.059C148.618 288.271 153.536 289.73 153.936 291.024ZM142.689 290.2C140.925 291.259 128.455 292.106 126.549 291.329C120.243 288.812 116.808 278.977 116.549 272.036C121.675 273.164 126.936 273.552 132.172 273.189C136.101 272.671 145.395 271.072 148.807 269.354C150.854 277.071 146.524 287.965 142.689 290.2ZM155.842 278.059C155.205 279.319 154.31 280.431 153.216 281.323C152.121 282.215 150.852 282.866 149.489 283.236C150.72 279.935 151.303 276.428 151.207 272.907C151.392 272.518 151.662 272.175 151.996 271.902C152.33 271.63 152.72 271.435 153.139 271.332C153.557 271.228 153.994 271.219 154.416 271.304C154.839 271.389 155.237 271.567 155.583 271.824C157.347 272.977 156.571 276.06 155.842 278.059ZM398.184 84.2093C414.089 92.9854 421.147 96.6558 426.23 104.35C423.033 101.601 418.964 100.075 414.748 100.044C399.666 99.5262 392.255 121.855 388.396 136.301C381.996 160.394 385.925 190.887 385.573 195.357C381.502 199.145 360.656 209.968 351.339 215.027C352.633 209.568 357.244 188.511 360.256 180.205C364.303 169.053 375.949 143.077 376.726 137.43C376.938 135.76 376.608 135.548 371.667 132.348C373.573 132.348 378.726 131.831 380.326 131.525C381.008 131.525 381.361 131.219 381.62 129.784C382.49 124.796 384.184 83.6917 384.326 79.3154C384.161 79.2213 396.16 83.0564 398.254 84.2093H398.184ZM380.043 78.586C381.115 78.5088 382.191 78.6284 383.22 78.9389C382.043 95.997 380.867 125.996 379.761 129.831C378.514 130.066 374.091 130.372 372.373 130.49C368.703 130.701 368.609 130.49 368.232 131.007C367.856 131.525 368.373 132.231 369.056 132.701C370.256 133.548 374.255 136.066 374.82 136.725C374.277 139.526 373.441 142.262 372.326 144.889C359.033 180.181 359.832 169.335 350.892 208.039C351.489 189.499 353.202 171.011 356.021 152.677C357.903 142.583 360.185 133.101 367.785 111.502C370.773 103.15 376.961 87.1503 377.196 87.2444C378.377 84.4325 379.352 81.5388 380.114 78.586H380.043ZM339.175 222.98C339.622 224.721 339.622 224.485 339.48 224.509L338.751 224.368C338.751 224.132 337.481 200.51 338.092 190.746C339.198 173.452 340.61 154.7 341.927 136.63C342.563 127.878 344.963 109.079 344.892 109.785L347.245 108.044C348.221 109.991 349.33 111.87 350.562 113.667C351.033 114.302 351.668 115.102 352.421 115.173C351.903 119.431 344.068 171.97 341.763 205.545C340.492 223.827 341.763 219.944 339.904 221.615C339.683 221.764 339.506 221.969 339.39 222.208C339.275 222.448 339.225 222.714 339.245 222.98H339.175ZM353.15 115.196C354.939 115.196 356.868 111.432 359.221 109.832C360.138 110.796 362.915 115.408 364.75 116.02C356.962 137.383 348.633 167.17 348.657 216.345C346.657 217.427 343.951 218.98 341.951 220.133C343.127 200.11 351.645 134.395 353.221 115.196H353.15ZM377.855 83.574C377.102 85.9269 365.926 112.914 365.15 114.161C363.937 112.971 362.856 111.654 361.927 110.232C359.95 107.573 359.268 106.702 355.903 110.49C360.891 101.079 370.632 91.5266 374.726 86.7739C378.632 82.3035 378.114 82.6799 377.855 83.574ZM325.152 34.1645C326.907 34.7051 328.784 34.7051 330.54 34.1645C331.883 33.5676 333.365 33.3558 334.822 33.5527C336.878 34.5005 338.992 35.3178 341.151 35.9997C343.821 35.9762 346.487 35.7639 349.127 35.3644C350.337 35.9297 351.362 36.8268 352.082 37.9513C352.803 39.0757 353.189 40.3816 353.197 41.7171C348.813 42.3538 344.579 43.7808 340.704 45.9286C340.466 45.1561 339.994 44.4765 339.354 43.9834C338.713 43.4903 337.935 43.2082 337.128 43.1758C333.27 42.7116 329.373 42.6643 325.505 43.0347C325.161 40.0282 325.043 37.0003 325.152 33.9762V34.1645ZM324.234 54.2342C323.646 53.1989 322.493 45.1757 323.669 44.3052C323.858 44.5405 323.034 43.8111 327.505 43.8581C330.655 43.9576 333.798 44.2404 336.916 44.7052C339.033 45.0816 339.386 46.0463 339.269 48.0932C339.269 51.8813 339.386 51.5049 339.269 52.6813C339.269 53.0107 339.128 53.8812 338.869 54.0695C334.029 54.9453 329.071 54.9373 324.234 54.0459V54.2342ZM345.857 80.7506C339.41 78.9154 333.504 78.6801 329.528 70.4922C326.963 65.2219 328.375 63.6925 326.046 63.0102C325.182 62.9073 324.331 62.7181 323.505 62.4456C323.505 60.8692 325.481 57.5752 325.858 55.9047C329.765 56.3718 333.714 56.3718 337.622 55.9047C339.975 55.5517 341.222 55.1518 340.845 50.3755V46.7286C344.539 45.5992 352.374 43.7405 353.315 43.4817C353.321 44.7616 353.495 46.0352 353.833 47.2698C354.2 48.046 354.835 48.6641 355.621 49.0109C355.747 49.0667 355.883 49.0928 356.021 49.0872C356.158 49.0815 356.293 49.0442 356.413 48.9782C356.534 48.9122 356.638 48.8192 356.717 48.7065C356.795 48.5938 356.847 48.4645 356.868 48.3285C357.409 46.1404 357.833 44.1875 357.997 43.2464C357.997 43.764 358.209 41.5994 359.762 40.7524C362.115 39.5289 365.762 42.2582 366.02 46.1169C366.162 47.9991 364.279 51.4108 362.868 55.34C362.021 57.6928 367.15 58.7045 368.938 59.5751C369.597 61.1044 369.197 62.822 370.091 63.7396C371.433 64.5668 372.904 65.1632 374.444 65.5042C376.067 70.7049 377.247 76.0334 377.973 81.4329C371.997 87.715 370.656 89.2208 369.056 90.8443C362.805 96.7834 357.505 103.647 353.339 111.196C351.668 101.385 348.492 92.7266 348.139 89.8796C347.857 87.668 348.327 83.7622 347.292 81.6682C347.135 81.419 346.925 81.2076 346.677 81.049C346.429 80.8903 346.149 80.7885 345.857 80.7506ZM346.539 88.7267C347.668 92.9148 350.68 106.514 351.551 111.973C350.115 109.808 348.351 106.232 348.351 106.232C348.29 106.104 348.2 105.992 348.09 105.904C347.979 105.815 347.85 105.753 347.712 105.721C347.575 105.69 347.431 105.689 347.293 105.721C347.155 105.752 347.026 105.814 346.915 105.902L345.198 107.22C345.857 101.103 346.515 94.8676 346.61 88.7267H346.539ZM345.857 86.6327C345.645 103.95 342.186 119.384 340.775 136.63C336.069 194.604 336.069 191.757 336.539 212.274C333.998 193.734 330.446 157.665 328.493 138.113C329.881 137.054 336.586 131.948 337.339 130.395C337.692 129.643 337.339 128.866 335.645 128.866C332.701 129.088 329.743 129.088 326.799 128.866C328.587 121.572 338.822 94.9617 341.551 87.9032C342.939 87.5032 344.092 87.1033 345.857 86.6327ZM236.473 170.958C240.12 167.123 285.883 158.182 288.377 155.759C291.883 152.23 301.529 130.325 311.364 113.714C319.717 99.5968 324.258 94.3735 340.516 88.3738C336.61 98.044 328.987 116.961 325.552 127.972C325.34 128.654 325.034 129.407 325.552 129.854C326.846 131.125 332.257 130.372 335.363 130.419C333.175 132.607 327.152 137.054 327.152 137.054C327.036 137.14 326.944 137.254 326.886 137.386C326.828 137.519 326.806 137.664 326.822 137.807C327.81 148.724 333.881 213.874 336.516 223.333L332.281 222.25C329.543 220.906 326.571 220.107 323.528 219.897C328.893 193.216 326.963 185.758 327.622 171.217C327.622 169.711 321.269 139.454 321.222 139.219C321.222 139.119 321.183 139.023 321.112 138.952C321.042 138.882 320.946 138.842 320.846 138.842C320.746 138.842 320.65 138.882 320.58 138.952C320.509 139.023 320.47 139.119 320.47 139.219C320.87 149.524 323.787 159.335 325.787 170.582C318.258 177.64 310.376 187.405 297.553 190.581C289.624 192.581 252.496 200.675 247.555 201.028C243.508 196.51 235.838 173.97 236.473 170.958ZM232.003 174.088C232.003 174.088 234.826 173.405 234.779 172.958C236.976 181.226 239.744 189.331 243.061 197.216C240.922 197.878 238.736 198.373 236.52 198.698C235.179 198.698 236.12 199.875 232.85 192.11C230.835 187.283 229.106 182.342 227.674 177.311C227.274 175.688 226.591 175.852 232.003 174.088ZM204.451 179.052C206.31 177.005 207.651 176.699 226.238 179.052C227.892 184.662 229.895 190.163 232.238 195.522C228.413 198.504 224.029 200.688 219.345 201.945C219.203 200.933 218.874 201.239 219.674 201.31C220.35 201.329 221.021 201.196 221.639 200.921C222.256 200.646 222.804 200.237 223.242 199.722C223.68 199.207 223.997 198.6 224.169 197.947C224.342 197.293 224.366 196.609 224.239 195.945C224.05 193.593 217.321 188.699 215.415 187.358C216.547 187.59 217.721 187.501 218.803 187.099C218.9 187.068 218.981 186.999 219.027 186.909C219.073 186.818 219.082 186.713 219.051 186.616C219.019 186.52 218.951 186.439 218.861 186.393C218.77 186.347 218.665 186.338 218.568 186.369C214.615 187.405 210.616 182.699 210.098 182.558C208.286 182.111 209.416 186.322 205.392 188.84C204.804 189.216 202.545 188.369 202.404 187.216C202.108 185.789 202.138 184.314 202.493 182.9C202.847 181.486 203.517 180.171 204.451 179.052ZM178.146 186.464C181.158 185.381 196.499 180.629 200.922 181.758C200.424 183.637 200.312 185.598 200.593 187.522C200.742 188.134 201.022 188.705 201.412 189.199C201.803 189.692 202.295 190.095 202.855 190.381C203.416 190.667 204.031 190.829 204.66 190.855C205.289 190.881 205.916 190.772 206.498 190.534C208.138 189.44 209.37 187.836 210.004 185.969C212.098 187.24 222.497 194.134 222.356 196.581C222.356 198.228 221.486 199.616 219.839 199.475C218.448 198.977 217.134 198.288 215.933 197.428C214.725 196.463 213.451 195.582 212.121 194.793C211.91 194.683 211.665 194.655 211.435 194.715C211.204 194.775 211.004 194.918 210.873 195.116C210.741 195.315 210.688 195.555 210.723 195.791C210.758 196.027 210.879 196.241 211.063 196.393C211.063 196.393 212.827 197.71 214.78 198.981C217.721 201.333 218.733 203.498 215.086 204.604C214.515 204.773 213.915 204.823 213.324 204.75C212.733 204.678 212.164 204.483 211.651 204.18C211.051 202.997 210.256 201.923 209.298 201.004C208.871 199.905 208.104 198.97 207.11 198.336C206.116 197.701 204.946 197.4 203.769 197.475C202.545 197.616 202.451 198.228 202.569 197.663C203.134 194.863 199.557 193.169 197.063 193.64C193.04 194.44 190.805 199.757 189.487 203.639C188.687 205.333 191.84 203.451 178.076 208.345C178.464 201.512 178.464 194.662 178.076 187.828C177.958 186.205 177.911 186.581 178.146 186.464ZM190.146 203.898C191.44 201.122 194.287 195.922 197.322 195.451C198.499 195.24 200.875 196.04 200.616 197.24C200.107 200.426 198.637 203.381 196.404 205.71C196.687 206.18 189.322 206.321 190.146 203.898ZM203.463 199.404C204.028 198.839 207.322 199.992 207.416 201.757C207.58 204.698 204.781 208.204 202.357 209.827C201.581 210.368 198.522 207.874 197.816 206.863C199.497 204.23 201.385 201.736 203.463 199.404ZM207.439 207.239C207.604 207.004 209.957 201.781 210.357 206.11C210.522 207.804 208.004 208.698 206.357 208.463C206.74 208.075 207.101 207.666 207.439 207.239ZM259.766 237.826C249.861 245.52 248.449 255.637 250.073 267.707C234.168 262.06 222.027 258.296 217.298 257.896C210.897 258.028 204.527 258.816 198.287 260.248C198.922 253.919 198.64 231.709 194.146 227.144C189.652 222.58 173.347 216.345 167.206 213.992H168.594C169.135 213.709 168.241 211.239 170.288 211.098C172.758 210.957 176.217 211.898 177.347 210.91C177.684 210.397 177.879 209.804 177.911 209.192C180.499 208.368 186.593 206.51 189.675 205.71C190.712 206.532 191.925 207.103 193.219 207.376C194.513 207.65 195.853 207.619 197.134 207.286C197.84 208.863 201.134 212.321 203.181 211.192C203.748 210.864 204.291 210.494 204.804 210.086C206.292 210.499 207.873 210.433 209.322 209.898C210.088 209.689 210.772 209.25 211.281 208.64C211.791 208.029 212.1 207.278 212.168 206.486C213.4 206.84 214.714 206.783 215.911 206.325C217.108 205.867 218.123 205.031 218.803 203.945C223.962 202.786 228.789 200.469 232.921 197.169C233.368 198.134 233.791 198.957 234.144 199.522C234.261 199.72 234.425 199.887 234.622 200.006C234.82 200.125 235.043 200.193 235.273 200.204C237.626 200.439 243.179 197.851 243.414 197.851C244.22 199.533 245.223 201.112 246.402 202.557C246.826 202.98 247.532 202.863 248.19 202.792C255.014 201.969 288.894 194.675 297.953 192.416C309.717 189.475 317.387 181.217 325.458 173.358C325.011 186.864 326.775 193.451 321.434 219.968C310.328 221.349 299.325 223.455 288.495 226.274C279.013 228.979 267.719 231.662 259.766 237.849V237.826ZM294.094 284.247L293.271 283.918C293.082 271.966 296.047 260.954 304.8 252.79C305.574 252.987 306.36 253.136 307.152 253.237C298.141 260.954 294.588 272.201 294.094 284.247ZM331.246 245.026C324.187 249.167 326.258 251.402 319.787 252.084C314.604 252.44 309.396 252.036 304.329 250.884C300.235 249.567 302.4 247.99 306.682 247.52C307.411 247.637 313.152 247.684 315.858 247.52C316.079 247.484 316.28 247.371 316.426 247.201C316.571 247.031 316.651 246.814 316.651 246.59C316.651 246.366 316.571 246.15 316.426 245.979C316.28 245.809 316.079 245.696 315.858 245.661C312.806 245.398 309.74 245.351 306.682 245.52C304.734 245.492 302.795 245.263 300.894 244.837C300.705 244.529 300.595 244.178 300.574 243.817C300.554 243.456 300.623 243.095 300.776 242.767C303.247 241.285 314.893 241.849 316.823 241.779C317.05 241.743 317.256 241.627 317.406 241.453C317.555 241.278 317.637 241.056 317.637 240.826C317.637 240.596 317.555 240.374 317.406 240.199C317.256 240.024 317.05 239.909 316.823 239.873C312.962 239.955 309.101 239.75 305.27 239.261C303.623 238.979 299.788 238.155 300.07 236.485C300.588 233.473 306.776 236.061 311.129 235.755C314.2 235.71 317.24 235.137 320.117 234.061C320.332 233.996 320.512 233.848 320.618 233.649C320.724 233.45 320.747 233.218 320.681 233.003C320.616 232.787 320.467 232.607 320.269 232.501C320.07 232.395 319.838 232.372 319.623 232.438C316.678 233.146 313.692 233.664 310.682 233.991C310.491 233.951 310.321 233.843 310.204 233.687C310.087 233.531 310.031 233.338 310.046 233.144C310.08 232.704 310.192 232.274 310.376 231.873C311.589 230.291 313.218 229.077 315.082 228.368C321.764 225.591 326.846 228.368 334.492 228.862C335.452 233.212 336.67 237.502 338.139 241.708C335.794 242.646 333.522 243.754 331.34 245.026H331.246ZM340.233 242.155C339.41 239.379 336.351 229.309 336.045 226.956C337.26 226.363 338.539 225.913 339.857 225.615C340.939 229.638 342.939 236.626 344.233 240.532C342.971 241.163 341.666 241.706 340.327 242.155H340.233ZM346.892 242.155C345.645 239.332 341.951 226.179 341.104 222.885C345.151 219.568 381.479 201.71 386.89 196.275C388.584 194.581 382.867 162.7 389.572 136.466C393.149 122.349 400.16 100.162 414.63 100.656C424.559 100.985 430.229 108.561 433.453 118.02C439.358 135.431 437.006 159.594 437.006 159.359C437.006 179.099 429.947 208.768 415.83 222.885C405.172 233.567 353.527 243.355 346.986 242.226L346.892 242.155ZM443.899 260.037C441.147 259.307 428.512 254.649 423.171 254.202C395.431 251.849 397.148 246.579 379.996 239.049C389.408 236.697 410.324 231.238 417.265 224.368C431.923 209.827 438.7 179.852 438.629 159.571C439.174 152.468 439.174 145.333 438.629 138.23C443.829 167.735 447.029 251.096 443.899 260.037Z" fill="white"/>
<path fill-rule="evenodd" clip-rule="evenodd" d="M80.1038 100.985L72.3865 101.879C74.7392 104.092 76.8816 106.518 78.7862 109.126L80.9273 102.067C80.9926 101.941 81.0207 101.798 81.0083 101.657C80.996 101.515 80.9437 101.379 80.8575 101.266C80.7713 101.153 80.6547 101.066 80.5213 101.016C80.3879 100.967 80.2431 100.956 80.1038 100.985ZM303.294 315.705C301.353 314.476 299.21 313.6 296.965 313.117C302.306 304.435 301.341 294.294 299.929 293.4C298.6 292.046 296.831 291.211 294.941 291.047C287.883 289.565 270.778 289.447 266.26 293.212C265.272 294.035 264.684 295.376 265.648 296.27C265.189 301.847 266.358 307.438 269.013 312.364C266.66 312.811 263.931 313.705 263.037 315.823C262.883 316.278 262.841 316.764 262.914 317.239C262.988 317.714 263.175 318.164 263.46 318.552C265.266 320.792 267.739 322.399 270.519 323.14C275.429 324.634 280.582 325.169 285.695 324.716C290.58 324.517 295.422 323.727 300.117 322.363C305.317 320.434 305.27 317.258 303.294 315.705ZM266.472 296.694C271.529 298.075 276.759 298.725 282.001 298.623C287.716 298.232 293.36 297.126 298.8 295.329C299.271 298.566 299.098 301.864 298.29 305.034C297.483 308.203 296.057 311.182 294.094 313.799C293.62 314.63 292.936 315.322 292.11 315.805C291.284 316.288 290.345 316.546 289.389 316.552C286.095 316.975 277.107 317.211 275.272 316.387C269.319 313.634 266.378 303.635 266.472 296.694ZM285.6 322.575C280.744 323.035 275.844 322.54 271.178 321.116C269.065 320.541 267.121 319.468 265.507 317.987C265.131 317.587 264.519 316.787 264.707 316.293C265.319 314.74 268.307 313.94 269.954 313.658C271.133 315.456 272.753 316.922 274.66 317.917C277.013 319.116 290.047 318.975 292.471 317.728C293.981 316.806 295.261 315.551 296.212 314.058C297.6 314.458 302.447 316.105 302.776 317.422C303.835 321.469 289.836 322.434 285.6 322.693V322.575Z" fill="white"/>
</svg>
